<svg xmlns="http://www.w3.org/2000/svg" xmlns:xlink="http://www.w3.org/1999/xlink" width="96" height="96" viewBox="0 0 96 96">
  <defs>
    <clipPath id="clip-path">
      <circle id="Ellipse_366" data-name="Ellipse 366" cx="48" cy="48" r="48" transform="translate(1633 683)" fill="#ed254e"/>
    </clipPath>
    <linearGradient id="linear-gradient" x1="0.373" y1="0.878" x2="0.7" y2="0.118" gradientUnits="objectBoundingBox">
      <stop offset="0" stop-color="#c2eabd"/>
      <stop offset="0.048" stop-color="#a5d59f"/>
      <stop offset="0.113" stop-color="#9fce99"/>
      <stop offset="0.188" stop-color="#84ba7d"/>
      <stop offset="0.269" stop-color="#6ca365"/>
      <stop offset="0.33" stop-color="#66a05e"/>
      <stop offset="0.436" stop-color="#558e4e"/>
      <stop offset="0.6" stop-color="#418639"/>
      <stop offset="0.8" stop-color="#326a2b"/>
      <stop offset="1" stop-color="#255a1f"/>
    </linearGradient>
    <linearGradient id="linear-gradient-2" y1="0.5" x2="1" y2="0.5" gradientUnits="objectBoundingBox">
      <stop offset="0" stop-color="#2b5725"/>
      <stop offset="0.317" stop-color="#407939"/>
      <stop offset="0.495" stop-color="#518e49"/>
      <stop offset="0.639" stop-color="#6aa263"/>
      <stop offset="0.764" stop-color="#86c17e"/>
      <stop offset="0.878" stop-color="#8dc786"/>
      <stop offset="0.981" stop-color="#a7d6a1"/>
      <stop offset="1" stop-color="#ecff2a"/>
    </linearGradient>
    <radialGradient id="radial-gradient" cx="0.521" cy="0.051" r="0.917" gradientTransform="translate(0.075) scale(0.849 1)" gradientUnits="objectBoundingBox">
      <stop offset="0.269" stop-color="#fff"/>
      <stop offset="0.594" stop-color="#fcfcfc"/>
      <stop offset="0.777" stop-color="#f4f4f4"/>
      <stop offset="0.924" stop-color="#e6e6e6"/>
      <stop offset="1" stop-color="#dcdcdc"/>
    </radialGradient>
    <radialGradient id="radial-gradient-2" cx="0.524" cy="0.281" fx="0.3605304956436157" fy="0.15783382952213287" r="0.556" gradientTransform="translate(0.088) scale(0.823 1)" gradientUnits="objectBoundingBox">
      <stop offset="0.269" stop-color="#e6e6e6"/>
      <stop offset="0.609" stop-color="#e3e3e3"/>
      <stop offset="0.801" stop-color="#dbdbdb"/>
      <stop offset="0.955" stop-color="#cdcdcd"/>
      <stop offset="1" stop-color="#c8c8c8"/>
    </radialGradient>
  </defs>
  <g id="Mask_Group_13" data-name="Mask Group 13" transform="translate(-1633 -683)" clip-path="url(#clip-path)">
    <g id="Group_314" data-name="Group 314">
      <circle id="Ellipse_365" data-name="Ellipse 365" cx="48" cy="48" r="48" transform="translate(1633 683)" fill="#ed254e"/>
      <g id="_ÎÓÈ_34__x28_ÍÓÔË_2_x29_" data-name="—ÎÓÈ_34__x28_ÍÓÔËˇ2_x29_" transform="translate(1635.228 677.485)">
        <g id="_ÎÓÈ_6" data-name="—ÎÓÈ_6" transform="translate(-12 7.895)">
          <path id="Path_6286" data-name="Path 6286" d="M92.242,188.914c-1.319-2.976.145-4.782-2.108-7.847,10.157-14.185,52.372,16.382,63.948,19.887,25.885,7.835,43.617-22.406,37.734-44.553-6.591-24.818-41.094-35.64-68.855-34.931a102.543,102.543,0,0,0-13.729,1.4,9.715,9.715,0,0,1,3.922-1.754c.169-.036.344-.058.526-.091a4.789,4.789,0,0,0,.831-.273,26.756,26.756,0,0,0,5.06-2.039,58.806,58.806,0,0,1,10.2-1.242c29.331-.27,57.363,12.157,63.482,37.488,6.189,25.621-9.216,57.292-40.167,50.71-15.54-3.488-40.312-21.981-55.546-20.737a5.959,5.959,0,0,0-5.3,3.981Z" transform="translate(-89.288 -115.309)" fill-rule="evenodd" fill="url(#linear-gradient)"/>
          <path id="Path_6287" data-name="Path 6287" d="M89.3,180.341c-.132-1.776.05-3.365-1.88-5.678-.15-.179-.3-.36-.441-.564.532-.754,1.18-1.528,1.356-1.729,10.989-12.565,52.048,17.089,63.438,20.538,25.885,7.835,43.617-22.406,37.734-44.553-6.591-24.818-41.094-35.64-68.855-34.931-2.424.062-4.556.218-6.582.434,1.745-1.1,3.673-2.63,5.7-3.649a51.169,51.169,0,0,1,7.7-.782c29.331-.27,57.363,12.157,63.482,37.488,6.189,25.621-9.216,57.292-40.167,50.71-15.54-3.488-40.312-21.981-55.546-20.736-2.654.216-4.525,1.7-5.518,4.554-.153-.439-.287-.8-.414-1.1Z" transform="translate(-86.979 -109.422)" fill-rule="evenodd" fill="url(#linear-gradient-2)"/>
          <path id="Path_6288" data-name="Path 6288" d="M118.467,114.515c-2.3,1.528-4.409,3.221-6.182,3.495h0c28.72-3.826,71.048,6.42,78.425,34.193,5.882,22.147-11.849,52.388-37.734,44.552-11.736-3.552-54.965-34.925-64.353-19.276,2.658,3.183,1.31,5,2.294,7.81.993-2.853,2.863-4.337,5.518-4.554,15.234-1.245,40.006,17.248,55.546,20.736,30.951,6.581,46.356-25.089,40.167-50.71C186.03,125.43,158,113,128.667,113.273a58.858,58.858,0,0,0-10.2,1.242Z" transform="translate(-88.183 -112.237)" fill-rule="evenodd" fill="url(#radial-gradient)"/>
          <path id="Path_6289" data-name="Path 6289" d="M118.467,114.515c-.318.211-.632.426-.943.639,28.966-4.276,67.343,6.513,74.624,37.2a49.83,49.83,0,0,1,1.34,10.757,49.2,49.2,0,0,0-1.34-12.353C186.03,125.43,158,113,128.667,113.273a58.858,58.858,0,0,0-10.2,1.242Zm73.365,47.492c-.446,20.171-16.649,41.469-38.854,34.747-11.736-3.552-54.965-34.925-64.353-19.276a8.89,8.89,0,0,1,1.026,1.492c8.791-12.98,52.048,15.964,63.327,19.379,22.791,6.9,39.257-15.72,38.854-36.342Z" transform="translate(-88.183 -112.237)" fill-rule="evenodd" fill="url(#radial-gradient-2)"/>
        </g>
      </g>
    </g>
  </g>
</svg>
