<svg xmlns="http://www.w3.org/2000/svg" xmlns:xlink="http://www.w3.org/1999/xlink" width="422.288" height="464.047" viewBox="0 0 422.288 464.047">
  <defs>
    <linearGradient id="linear-gradient" x1="0.5" y1="1" x2="0.5" gradientUnits="objectBoundingBox">
      <stop offset="0" stop-color="#465362"/>
      <stop offset="1" stop-color="#c2eabd"/>
    </linearGradient>
  </defs>
  <g id="dogExersice" transform="translate(-1172 -2143.516)">
    <path id="Path_3169" data-name="Path 3169" d="M-690.581,5354.579s-118.494-29.846-144.93-99.809,49.415-99.286,39.187-180.045-106.536-96.982-80.1-142.992,185.843-41.046,185.843-41.046Z" transform="translate(2284.87 -2747.016)" fill="url(#linear-gradient)"/>
    <g id="Group_4" data-name="Group 4" transform="translate(1172 2271.955)">
      <g id="Group_2" data-name="Group 2" transform="translate(1.555 1.992)">
        <path id="Path_1" data-name="Path 1" d="M257.9,244.383c-.454.244-.872.638-1.336.9a4.546,4.546,0,0,0-.784.955c-1.56,2.777,2.906,2.668,3.486.484C259.507,245.824,259.476,243.536,257.9,244.383Z" transform="translate(-59.414 -223.55)" fill="#dbcbb0"/>
        <path id="Path_2" data-name="Path 2" d="M279.519,237.329a2.087,2.087,0,0,0-2.308,1.106c-.222.316-1.232,1.6-1.1,1.906a.773.773,0,0,1,.045.6c.38.611-.154.573.625.873a1.109,1.109,0,0,1,.531.429c1.036-.343,2.077-.677,3.124-.992a.963.963,0,0,1,.169-.745C281.561,239.1,280.328,238.31,279.519,237.329Z" transform="translate(-61.548 -222.834)" fill="#dbcbb0"/>
        <path id="Path_3" data-name="Path 3" d="M198.746,361.482a3.433,3.433,0,0,0,3.4,1.381,10.7,10.7,0,0,0,3.951-.737c.122-.039.242-.084.364-.124a16.333,16.333,0,0,0,2.99-1.062q1.438-.543,2.865-1.119c4.8-1.673,9.564-3.455,14.279-5.257,4.645-1.775,10.381-5.079,15.664-5.579a.514.514,0,0,0,.11-.023c8.747-2.961,17.595-5.7,26.154-9.168,8.777-3.559,17.269-7.752,25.958-11.514,16.8-7.273,34.43-12.228,52.034-17.116,8.985-2.494,17.981-4.972,26.865-7.81,7.73-2.468,15.622-5.06,22.532-9.418,4.808-3.032,10.535-7.553,12.927-12.975a.388.388,0,0,0,.016-.041,19.457,19.457,0,0,0,.839-2.213,4.7,4.7,0,0,0,.12-.93,11.752,11.752,0,0,0-1.035-7.1c-3.5-7.464-7.413-15.383-14.982-19.539-10.4-5.713-22.063-9.429-33.773-11.97-12.049-2.615-23.683-4.556-35.944-3.729-23.021,1.55-47.026,3.308-67.92,14.14-17.883,9.272-33.755,26.1-35.083,47.138-.716,11.334,1.855,24.521,11.775,31.469,8.232,5.765,18.362,7.308,28.12,8.486a1.191,1.191,0,0,1,.927.609.536.536,0,0,0,.668.208q1.524-.608,3.045-1.227a.556.556,0,0,0-.109-1.062c-7.879-1.427-16.325-3.086-23.542-6.293-6.944-3.088-12.624-6.742-15.662-13.987-1.657-3.95-1.965-8.468-2.047-12.7-.082-4.271-.252-8.756.842-12.93,2.218-8.463,7.473-17.269,12.945-24.056,5.7-7.07,13.351-10.9,21.452-14.644,8.62-3.978,17.45-7.907,26.869-9.544,9.807-1.7,19.88-2.278,29.8-2.981a197.658,197.658,0,0,1,29.063-.134.539.539,0,0,1,.065.014h0c.708,0,1.54.149,2.143.2a1.418,1.418,0,0,0,.237.006c.1.02.2.039.3.05,10.812,2.13,22.208,3.772,32.334,8.163,7.965,3.455,16.485,7.777,21.707,15,5.016,6.936,7.271,15.921,1.97,23.447-5.568,7.906-14.652,11.209-23.522,14.031-11.291,3.593-22.813,6.149-34.245,9.219a299.863,299.863,0,0,0-34.781,11.248c-10.9,4.4-21.682,9.074-32.529,13.606-15.98,6.676-31.859,12.881-48.378,17.455-3.774,1.179-7.577,2.275-11.343,3.429-6.271,1.921-12.783,4.56-19.3,6.048a1.314,1.314,0,0,0-.824.193.552.552,0,0,0-.5.694A.965.965,0,0,0,198.746,361.482Z" transform="translate(-53.531 -222.625)" fill="#92a0b1"/>
        <path id="Path_4" data-name="Path 4" d="M224.913,255.593a79.9,79.9,0,0,1,11.278-7.483,3.433,3.433,0,0,1-3.449-5.133c-.065-1.98,2.923-3.112,4.507-2.5,2.361.916,2.227,4.365,1.073,6.123a4.064,4.064,0,0,1-.509.628,97.385,97.385,0,0,1,12.911-5.6,1.929,1.929,0,0,1-.5-1.758.654.654,0,0,1-.127-.67c.67-2.406,2.472-5.4,5.343-4.972.669.1,1.22.8,1.729,1.221a3.578,3.578,0,0,1,1.15,3.8,157.937,157.937,0,0,1,23.439-4.469,264.079,264.079,0,0,1,34.642-2.256c11.6.16,21.6,2.17,32.761,5.148a186.508,186.508,0,0,1,17.9,5.814,63.955,63.955,0,0,1,12.958,6.688,29.108,29.108,0,0,1,9.428,9.811c.77,1.381,1.644,2.866,2.477,4.4a.539.539,0,0,0,.264.241c5.355,2.262,11.259,5.631,15.3,9.557a24.929,24.929,0,0,1,2.88,3.329.557.557,0,0,0,1-.432q-.18-.966-.439-1.935c-2.932-10.934-10.885-19.348-20-25.663-17.36-12.032-37.742-19.539-58.6-22.6a185.363,185.363,0,0,0-62.676,1.739,210.539,210.539,0,0,0-33.806,9.567c-6.482,2.459-12.989,5.288-19.667,8.115-14.768,7.731-29.453,15.661-44.256,23.334-8.493,4.4-16.907,9.225-25.788,12.815a227.933,227.933,0,0,1-23.385,7.765c-17.438,4.932-35.9,8.075-54.071,7.334-9.01-.368-25.5-.932-31.27-9.574.066,1.994.127,3.989.2,5.982.177,5.095-.336,11.2,4.971,13.884,3.7,1.868,7.872,2.488,11.9,3.284a110.03,110.03,0,0,0,15.516,2.277c9.934.522,19.239-.828,28.621-2.58,9.967-1.861,19.567-3.1,28.735-6.068,9.227-2.985,17.483-5.754,26.076-9.43a192.235,192.235,0,0,0,22.16-11.428c7.2-4.261,14.271-8.751,21.5-12.974,5.646-3.3,11.41-6.974,17.526-9.5,1.433-1.031,3.03-1.931,4.386-2.8A32.181,32.181,0,0,1,224.913,255.593Zm23.4-13.871-.059.354c-.035.213-.112-.175-.143-.36A.1.1,0,1,1,248.318,241.722Z" transform="translate(-36.875 -221.567)" fill="#465362"/>
        <path id="Path_5" data-name="Path 5" d="M431.068,277.087q-.18-.966-.439-1.935c-2.932-10.934-10.885-19.348-20-25.663-17.36-12.032-37.742-19.539-58.6-22.6a185.363,185.363,0,0,0-62.676,1.739,210.54,210.54,0,0,0-33.806,9.567c-.559.213-1.121.441-1.681.659a196.306,196.306,0,0,0-25.819,25.571c16.026-8.527,13.033-7.494,16.567-8.837A79.9,79.9,0,0,1,255.9,248.11a3.433,3.433,0,0,1-3.449-5.133c-.065-1.98,2.923-3.112,4.507-2.5,2.361.916,2.227,4.365,1.073,6.123a4.064,4.064,0,0,1-.509.628,97.383,97.383,0,0,1,12.911-5.6,1.929,1.929,0,0,1-.5-1.758.654.654,0,0,1-.127-.67c.67-2.406,2.472-5.4,5.343-4.972.669.1,1.22.8,1.729,1.221a3.578,3.578,0,0,1,1.15,3.8,157.936,157.936,0,0,1,23.439-4.469,264.078,264.078,0,0,1,34.642-2.256c11.6.16,21.6,2.17,32.761,5.148a186.512,186.512,0,0,1,17.9,5.814,63.955,63.955,0,0,1,12.958,6.688,29.107,29.107,0,0,1,9.428,9.811c.77,1.381,1.644,2.866,2.477,4.4a.539.539,0,0,0,.264.241c5.355,2.262,11.259,5.631,15.3,9.557a24.929,24.929,0,0,1,2.88,3.329A.557.557,0,0,0,431.068,277.087ZM267.88,242.074l-.059-.358a.1.1,0,1,1,.2.006C267.99,241.926,267.915,242.279,267.88,242.074Z" transform="translate(-56.582 -221.567)" fill="#c47008"/>
        <path id="Path_6" data-name="Path 6" d="M304.2,256.009a143.3,143.3,0,0,1,57.914,5.078c14.363,4.25,34.787,8.228,41.572,23.459.709,1.592,2.762-2.65,3.307-4.312,1.841-5.617.473-11.4-2.863-16.2-11.871-17.056-34.812-20.276-53.917-23.832-.743-.139-10.77-1.313-28.129-.275-26.971,1.612-36.3,2.568-56.177,11.593-15.028,6.822-20.1,8.708-28.594,23.287-2.5,4.292-12.9,18.676-6.6,38.762q.268.855.6,1.652a.555.555,0,0,0,1.063-.226c-.053-6.979.071-14.063,3.292-20.455C240.909,284.139,263.289,260.883,304.2,256.009Z" transform="translate(-56.65 -223.065)" fill="#858f9a"/>
        <path id="Path_7" data-name="Path 7" d="M232.739,296.244c-.56-1.369-1.077-2.75-1.531-4.146-.123.345-.256.687-.365,1.036a46.553,46.553,0,0,0-.106,25.875q.268.855.6,1.652a.555.555,0,0,0,1.063-.226,64.736,64.736,0,0,1,.9-13.371C230.475,304.683,231.819,302.338,232.739,296.244Z" transform="translate(-56.675 -228.501)" fill="#616e7c"/>
        <path id="Path_8" data-name="Path 8" d="M246.613,281.176c-.576,2.734-.987,5.2-1.3,7.239.725-.716,1.472-1.413,2.228-2.1C247.118,285.571,246.98,284.869,246.613,281.176Z" transform="translate(-58.366 -227.372)" fill="#616e7c"/>
        <path id="Path_9" data-name="Path 9" d="M403.068,257.567c-.048-.665-1.011-.915-1.211-.195a51.111,51.111,0,0,0-1.125,5.122c-.3-3.153-.618-6.3-.906-9.46-12.24-7.787-28.246-10.231-42.217-12.83l-.048-.007a171.823,171.823,0,0,0-28.082-.268c-4.642.278-9.327.555-14,.939-.052.912-.119,1.822-.182,2.733a1.365,1.365,0,0,0-1.9-.142c-4.33,3.221-8.791,6.308-12.905,9.8a.717.717,0,0,0,.821,1.152c1.3-.739,2.569-1.516,3.83-2.312l-.175.186a1.441,1.441,0,0,0,1.651,2.314c1.712-.689,3.376-1.443,5.008-2.251-.149.167-.3.331-.448.5a1.541,1.541,0,0,0,1.765,2.476q.826-.352,1.662-.713c-.008.36-.02.721-.014,1.079,37.04-3.614,75.815,10.538,85.364,16.62.1-.345.233-.681.353-1.02a1.405,1.405,0,0,0,2.248-1.006A68.655,68.655,0,0,0,403.068,257.567ZM315.054,247.2q-1.479.89-3,1.7c1.051-1.132,2.095-2.27,3.118-3.426C315.128,246.049,315.094,246.624,315.054,247.2Z" transform="translate(-64.045 -223.063)" fill="#616e7c"/>
        <path id="Path_10" data-name="Path 10" d="M241.5,356.856c.153-.031.306-.069.459-.1,6.242-2.118,12.42-4.4,18.559-6.787a.557.557,0,0,0-.114-1.068c-9.363-1.5-18.718-3.6-26.2-9.354a25.17,25.17,0,0,1-3.636-3.427.553.553,0,0,0-.948.529c2.528,7.832,4.075,11.206,5.972,13.57C237.915,353.111,241.865,355.628,241.5,356.856Z" transform="translate(-56.741 -233.031)" fill="#465362"/>
        <path id="Path_11" data-name="Path 11" d="M56.186,294.217a140.169,140.169,0,0,0,25.015.89,199.459,199.459,0,0,0,49.166-9.347c16.672-5.32,31.653-13.525,47.1-21.594,12.147-6.345,24.4-12.513,36.571-18.809a.2.2,0,0,0,0-.022l.232-.1c2.95-1.527,6.863-2.7,9.816-4.213l.088-.039.053-.014a.4.4,0,0,0,.053-.031c3.981-1.745,7.971-3.475,12.057-5.008a211.476,211.476,0,0,1,30.446-8.887,185.235,185.235,0,0,1,58.189-3.332c19.678,2.14,39.171,7.512,56.508,17.223,15.5,8.683,34.342,23.059,32.53,43.205-1.878,20.867-22.283,32.263-39.665,39.357-19.587,7.993-40.077,12.215-60.843,15.658a.574.574,0,0,0-.093.024q-2.788.979-5.565,2c15.443-1.206,30.669-4.525,45.65-8.416,16.938-4.4,34.464-7.862,47.725-20.077,7.487-6.9,15.174-16.2,16.138-26.768.575-6.3-1.112-12.124-3.96-17.714-2.484-4.873-5.034-10.191-8.789-14.222-7.319-7.855-17.2-13.361-26.825-17.906a151.087,151.087,0,0,0-32.506-11.25c-38.616-8.324-77.417-1.5-114.179,11.051-.055.014-.109.03-.165.044l-.008,0a70.473,70.473,0,0,0-8.036,2.645c-4.69,1.716-9.223,3.671-13.831,5.54a.364.364,0,0,0-.078.015c-.031.012-.059.026-.089.039h0S204.27,245.635,176,260.971a.5.5,0,0,1-.3.43,16.274,16.274,0,0,1-1.852.737c-6.856,3.713-13.731,7.389-20.771,10.743A206.081,206.081,0,0,1,95.682,290.89c-10.561,1.64-21.916,3.259-32.585,1.845a60.832,60.832,0,0,1-15.639-4.205c-2.728-1.142-7.326-2.788-8.09-6.136-1.73-7.582,7.815-12.892,13.557-14.806,10.79-3.6,22.295-5.086,33.52-6.636,47.207-6.518,93.972-15.036,140.536-25.116a288.458,288.458,0,0,1,37.651-11.343c-4.812-1.133-9.375.852-14.085,2.079-5.043,1.314-9.972,3.009-15.021,4.339-9.626,2.534-19.236,5.074-28.963,7.221-20.359,4.494-40.788,7.964-61.427,10.9-20.059,2.856-40.232,4.965-60.265,8-9.56,1.447-19.182,3.326-28.281,6.676-7.709,2.838-16.757,6.536-19.617,14.775-.039.273-.1.543-.16.812.324.27.429,5.381.444,5.8C40.7,291.328,49.373,293.371,56.186,294.217Z" transform="translate(-36.814 -221.169)" fill="#92a0b1"/>
        <path id="Path_12" data-name="Path 12" d="M215.775,242.691c-26.331,5.764-52.868,10.691-79.461,15.017q-18.017,2.931-36.1,5.465c-11.724,1.632-23.562,2.875-35.123,5.489-5.311,1.2-11.04,2.346-15.812,5.095-4.355,2.507-11.467,9.581-4.047,13.369a52,52,0,0,0,7.637,3.153c3.848-7.445,15.011-8.832,22.222-10.839,10.645-2.962,21.39-5.29,32.453-5.858,11.75-.6,23.126-2.881,34.651-5.106,5.365-1.036,10.866-2.445,16.312-2.923,5.655-.5,11.3-3.212,17.006-3.024,10.124-5.475,20.117-11.209,30.661-15.852C206.281,246.431,215.528,242.793,215.775,242.691Z" transform="translate(-37.351 -223.394)" fill="#616e7c"/>
        <path id="Path_13" data-name="Path 13" d="M443.851,303.11a31.016,31.016,0,0,1-1.278,2.905c-10.943,21.778-33.1,29.013-48.713,33.485-48.5,13.888-67.551,13.022-67.551,13.022-14.937,5.757-23.282,9.572-35.718,14.6-5.217,2.111,29.669,1.793,47.724.271,9.468-.8,41.994-4.267,52.148-8.54,17.851-7.512,47.128-21.8,52.818-40.469a45.1,45.1,0,0,0,1.638-15.106A.552.552,0,0,0,443.851,303.11Z" transform="translate(-62.992 -229.602)" fill="#465362"/>
        <path id="Path_14" data-name="Path 14" d="M123.209,417.962l0,0c2.554-.151,5.264-1.815,7.718-2.779a.6.6,0,0,1,.555-.109c-.022-.153-.044-.307-.064-.459-.5-.162-.581-1.033-1.238-2.507-6.79,2.273-7.407,2.5-9.108,2.956a9.525,9.525,0,0,1,1.984,2.92A.4.4,0,0,1,123.209,417.962Z" transform="translate(-45.523 -240.906)" fill="#fffeee"/>
        <path id="Path_15" data-name="Path 15" d="M194.177,413.185a.553.553,0,0,0-.494.047,8.93,8.93,0,0,1-8.454,1.025,6.956,6.956,0,0,1-2.676-1.972.955.955,0,0,1-.372.073,15.562,15.562,0,0,1-2.621,1,8.1,8.1,0,0,1-1.486.574.557.557,0,0,0-.325.886,11.7,11.7,0,0,0,7.289,4.585,15.274,15.274,0,0,0,12.134-3.117c.459-.373.916-.754,1.34-1.16a1.519,1.519,0,0,1-.667-.325A12.079,12.079,0,0,0,194.177,413.185Z" transform="translate(-51.37 -240.924)" fill="#fffeee"/>
        <path id="Path_16" data-name="Path 16" d="M173.18,403.089c-.483-7.264-2.881-9.456-4.23-11.547a1.987,1.987,0,0,1-.393.122,1.032,1.032,0,0,1-1.236-1.016,10.359,10.359,0,0,1,2.228-7.133c.972-1.206,2.5-2.932,4.175-3.205a.452.452,0,0,0,.1-.03c.4-.171.8-.338,1.206-.5a8.592,8.592,0,0,1,5.67-.207c.377.091.749.192,1.111.308.117.038.226.062.34.094a9.558,9.558,0,0,0,1.69,1.157,3.339,3.339,0,0,0,2.512.426,2.559,2.559,0,0,0,1.947-3.023,5.073,5.073,0,0,0-2.09-3.393c-.035-.027-.065-.061-.1-.088a.44.44,0,0,0-.122-.06c-.048-.03-.094-.066-.143-.1a3.386,3.386,0,0,0-.524-.242c-.01-.013-.027-.022-.037-.036a.554.554,0,0,0-.208-.2c-4.205-2.038-10.56.6-14.638,2.452-2.247,1.02-5.312,1.981-6.944,3.919-2.308,2.741-2.313,5.428-1.755,8.756a.866.866,0,0,1-.238.758l-.006.014a8.907,8.907,0,0,0-1.31,3.614,1.009,1.009,0,0,1-1.485.88c-.179.053-.62.176-.743.21-1.513,1.124-4.071,1.443-5.763,2l-7.933,2.59c-4.361,1.424-9.449,2.3-11.744,5.921a.568.568,0,0,1-.083.164c-.013.018-.029.031-.042.048a7.949,7.949,0,0,0-.4.785.968.968,0,0,1,.312.664c.186,3.4,2.593,6.051,2.719,9.442a17.415,17.415,0,0,1-1.507,7.792c-2.018,4.64-8.017,8.763-13.034,9.314-3.008.332-6.787-.567-8.155-3.37a6.247,6.247,0,0,1-.805-3.665c.223-4.939,4.961-8.415,8.861-10.5a.413.413,0,0,1,.117-.036c.013-.022.029-.043.04-.065-.107-.121-.213-.244-.325-.356a1.537,1.537,0,0,0-.676-1.754,7.358,7.358,0,0,0-1.323-1.934c-1.344-1.366-4.245-.273-5.568.441a14.772,14.772,0,0,0-5.29,4.43,15.191,15.191,0,0,0-1.981,13.814c1.787,5.035,5.365,9.175,11.117,8.965a25.405,25.405,0,0,0,12.745-3.652c8.028-5.131,9.971-14.085,15.569-21.176,4.242-5.374,10.52-9.626,17.412-10.6a1.432,1.432,0,0,1,1.7,1.409,5.834,5.834,0,0,0,5.739.744C171.7,405.718,172.276,404.47,173.18,403.089Zm-10.725-.077c-3.527,1.931-7.711,2.317-11.271,4.458a36.426,36.426,0,0,0-10.195,9.663c-.055.073-.2.028-.158-.07,3.722-8.783,15.188-16.325,21.514-15.153C162.89,402.01,162.877,402.782,162.455,403.012Zm2.049,2.424c-.423-1.965,1.343-7.681-2.775-11.461-.743-.682,1.928-1.122,3.362,4.413C166.939,405.512,164.672,406.222,164.5,405.436Z" transform="translate(-43.813 -236.934)" fill="#fffeee"/>
        <path id="Path_17" data-name="Path 17" d="M256.29,372.475c-1.821-2.08-7.4-5.044-11.026-4.334-7.329.019-11.883,5.444-27.154,9.855-3.675,1.062-7.724,1.791-11.018,3.821-4.3,2.651-8.384,7.9-13.921,7.766a10.262,10.262,0,0,1-4.145-.9.556.556,0,0,0-.765.715c1.023,2.381,2.172,4.541,2.6,5.516.672,1.531,3.712,11,5.549,10.907,14.1-.741,16.416-5.7,21.561-8.5,12.418-6.768,26.365-3.517,33-12.07,1.956-2.523,2.278-2.92,2.278-2.92.085-.127,1.427-1.848,1.522-1.969,1.231-1.494,4.194-3.662,2.511-6.417A8.6,8.6,0,0,0,256.29,372.475Zm-38.482,17.016c-1.877-2.658-.857-8.114,2.5-8.956,1.808-1.17,5.842-2.692,7.7,1.709C231.335,390.135,221.881,395.261,217.808,389.491Zm29.641-6.253c-2.886,3.11-8.157,2.217-9.217-2.138a7.827,7.827,0,0,1,1.724-6.442,6.394,6.394,0,0,1,4.984-1.718.543.543,0,0,1,.331.194c.108.014.213.022.323.039C249.937,373.849,249.961,380.534,247.449,383.238Z" transform="translate(-52.464 -236.35)" fill="#465362"/>
        <path id="Path_18" data-name="Path 18" d="M134.475,407.418c2.232-2.983,5.681-5.123,9.528-6.784a2.6,2.6,0,0,1-.921-2.2l-7.99,3.062a1.332,1.332,0,0,0-.082,1.606,6.554,6.554,0,0,1-.742,4.369C134.338,407.454,134.406,407.431,134.475,407.418Z" transform="translate(-46.888 -239.492)" fill="#fffeee"/>
        <path id="Path_19" data-name="Path 19" d="M248.574,375.829c-1.472.828-2.142,2.318-2.1,4.551.058,3.157,3.959,5.095,5.834,1.892C254.394,378.709,252.765,374.43,248.574,375.829Z" transform="translate(-58.486 -237.128)" fill="#dbcbb0"/>
        <path id="Path_20" data-name="Path 20" d="M222.832,389.053a.663.663,0,0,1,.015.316c1.451,2.105,6.082,2.988,6.936-.958a6.393,6.393,0,0,0-.463-4.17C227.981,381.547,221.17,383.376,222.832,389.053Z" transform="translate(-56.015 -237.899)" fill="#dbcbb0"/>
        <path id="Path_21" data-name="Path 21" d="M184.856,402.906a10.749,10.749,0,0,0-.323-4.936,11.487,11.487,0,0,0-1.212-3.562c-.618-.89-1.686-.376-2.486.064a.558.558,0,0,0-.2.781,12.412,12.412,0,0,1,1.093,2.231,28.547,28.547,0,0,1,1.343,6c.115-.062.192,0,.281.064.143-.053.288-.1.425-.138a2.282,2.282,0,0,1,.545-.1A.569.569,0,0,0,184.856,402.906Z" transform="translate(-51.671 -239.026)" fill="#fffeee"/>
        <path id="Path_22" data-name="Path 22" d="M133.906,400.4c3.776-3.033,9.013-5,13.412-6.887-.464-.359-.48-.181-.91-.621-3-.144-8.288,1.989-9.189,2.42-1.013.486-5.328,2.023-4.027,4.036C133.408,399.686,133.659,400.041,133.906,400.4Z" transform="translate(-46.751 -238.919)" fill="#fffeee"/>
        <path id="Path_23" data-name="Path 23" d="M203.127,381.971c4.76-3.517,10.065-4.675,15.593-6.481,7.007-2.288,13.372-5.718,20.176-8.446a16.769,16.769,0,0,1,6.378-1.28.555.555,0,0,0,.212-1.071,5.321,5.321,0,0,0-1.672-.392,19.59,19.59,0,0,0-8.427,1.766c-9.226,3.682-18.469,7.316-27.862,10.524a36.49,36.49,0,0,1-4.576,1.923c-.9.38-1.958,1.02-3.034,1.522-.377.236-.754.473-1.13.727a31.354,31.354,0,0,1-3.463,2.127,8.446,8.446,0,0,1-3.461.725c-1.045-.329-2.258-1.11-2.13-2.1-3.44-.942-3.894-.589-3.394,2.271a.452.452,0,0,1,.1.152C189.588,392.034,199.108,384.941,203.127,381.971Z" transform="translate(-52.252 -235.962)" fill="#92a0b1"/>
        <path id="Path_24" data-name="Path 24" d="M320.657,349.453a1.232,1.232,0,0,1,1.265-.534c1.3-.209-.294.182,8.411-3.106.62-.234.15-.7,1.14-.7,0,0,15.836-5.368,23.826-7.485,8.373-2.217,51.638-10.826,58.1-28.856,1.809-5.047,1.588-10.967,1.28-16.667a.551.551,0,0,0-.989-.308c-7.829,10.2-22.739,15.626-34.3,19.281-22.562,7.135-45.822,12.171-67.973,20.586-11.043,4.2-21.615,9.45-32.532,13.941-18.673,7.682-28.861,8.762-25.813,9.852,2.761.989,15.447,8,13.47,13.009a.854.854,0,0,1,.1.275c-.161.363-.331.725-.475,1.1q-.175.233-.351.464a.555.555,0,0,0,.627.859,4.564,4.564,0,0,0,3.142-.816c13.605-5.859,27.448-11.213,41.17-16.777C311.023,353.463,320.5,349.695,320.657,349.453Z" transform="translate(-59.113 -228.448)" fill="#465362"/>
        <path id="Path_25" data-name="Path 25" d="M253.518,248.907c-3.375-1.488,1.613-5.2-.205-5.689,1-1.956-.041-3.36-4.291.95-.759-.012-.983.465-1.5,1.5-.123.123-.245.247-.367.371-1.142-1.008-1.919.473-3.074,2-2.976,1.581-5.3,4.52-7.564,6.945-1.155,1.236-2.347,2.519-3.49,3.849-.42.447-.835.889-1.253,1.309a1.186,1.186,0,0,0-.348.647q-.771,1-1.462,2.034c-.767.556-1.539,1.106-2.323,1.642-1.331.908-.26,3.112,1.194,2.266,6.483-3.773,12.979-7.534,19.356-11.485a1.49,1.49,0,0,0,.556-.6q2.3-1.376,4.508-2.885C255.2,251.665,254.966,248.844,253.518,248.907Zm-2.883-2.009-.033,0c-.063-.162-.122-.325-.186-.488.164-.154.333-.311.508-.47A6.524,6.524,0,0,0,250.635,246.9Z" transform="translate(-56.477 -223.254)" fill="#8c410e"/>
        <path id="Path_26" data-name="Path 26" d="M264.212,243.767a2.812,2.812,0,0,0-3.785-2.136.943.943,0,0,0-.051,1.63c.805.375,1.882.955.368,3.088-.176.186-.562.715-.724.932-1.032,1.383,1.146,3.5,3.039.824.023-.031.047-.061.069-.092A5.2,5.2,0,0,0,264.212,243.767Z" transform="translate(-59.859 -223.262)" fill="#8c410e"/>
        <path id="Path_27" data-name="Path 27" d="M284.85,237.311c-.552-.977-1.538-2.188-2.1-1.271-.066.109-.236.346-.157.429a.539.539,0,0,1,.038.049,10.286,10.286,0,0,0,1.063,3.759,1.183,1.183,0,0,0,1.589.492C286.5,240.127,285.6,238.649,284.85,237.311Z" transform="translate(-62.218 -222.673)" fill="#8c410e"/>
        <path id="Path_28" data-name="Path 28" d="M228.5,242.412a46.736,46.736,0,0,0-8.7,2.54c-.613-.337-4.138-.238-6.523.833-.915.063-1.71-.092-2.188.828-1.067.544-2.454,1.271-4.88,2.7a3.252,3.252,0,0,0-.6.076,1.248,1.248,0,0,0-1.52-.306c-.868.462-1.819.959-2.8,1.492a3.793,3.793,0,0,0-1.143.635c-3.2,1.818-6.479,4.064-8.032,6.965-.045.084.023.22.131.183a17.764,17.764,0,0,0,4.086-2.25,1.6,1.6,0,0,0,.186.556c-2.939,1.734-6.33,3.494-8.46,6.16-.33.413.184,1.08.666.924,2.945-.95,5.49-3.078,8.124-4.68,3.388-2.061,6.877-3.948,10.414-5.739,7.088-3.589,14.74-5.845,21.82-9.342A.848.848,0,0,0,228.5,242.412Z" transform="translate(-52.437 -223.364)" fill="#465362"/>
        <path id="Path_29" data-name="Path 29" d="M190.639,256.445c-.5.605,3.165-.933,5.992-3.846C197.9,251.292,193.456,253.028,190.639,256.445Z" transform="translate(-52.71 -224.373)" fill="#465362"/>
        <path id="Path_30" data-name="Path 30" d="M234.247,286.525a22.549,22.549,0,0,0-.924,2.643c-.431-.475-.837-.232-1.276.169a.359.359,0,0,0-.6.13c-.055.212-.1.423-.149.635-1.394,1.6-5.589,8.587-2.312,8.095-.065.8-.093,2.384-.1,3.222a.815.815,0,0,0-.567.759c-.493,5.855.872,12.8,2.452,18.424a.876.876,0,0,0,1.717-.168h0v-.041a75.379,75.379,0,0,0-.464-9.105c.055-.6.066-1.2.11-1.788a29.807,29.807,0,0,0,.466-4.117.986.986,0,0,0-.672-.9,49.692,49.692,0,0,0,.393-6.545,4.375,4.375,0,0,0,.33.907.4.4,0,0,0,.681.021c.895-1.461.731-3.172.876-4.851.212-2.475.45-4.94.445-7.428A.21.21,0,0,0,234.247,286.525Zm-3.983,9.878c.1-.238.2-.472.3-.707-.09,1.2-.059.838-.127,1.682a1.16,1.16,0,0,0-.234-.079A.9.9,0,0,0,230.264,296.4Zm2.158-2.706c0-.516-.021-1.033-.046-1.549.13-.212.257-.426.386-.638C232.571,292.532,232.543,292.879,232.422,293.7Z" transform="translate(-56.552 -227.91)" fill="#465362"/>
        <path id="Path_31" data-name="Path 31" d="M238.039,285.34c-.62,2.5-1.607,4.9-2.045,7.452a.645.645,0,0,0,1.236.363l.009.005A54.98,54.98,0,0,0,238.039,285.34Z" transform="translate(-57.401 -227.795)" fill="#465362"/>
        <path id="Path_32" data-name="Path 32" d="M244,281.749c-.823.149-1.439,1.089-1.994,1.663l-2.131,2.206c-.373.386.183.985.572.609,3.365-3.251,3.744-3.37,3.882-4.127A.283.283,0,0,0,244,281.749Z" transform="translate(-57.791 -227.431)" fill="#465362"/>
        <path id="Path_33" data-name="Path 33" d="M46.511,288.237a31.783,31.783,0,0,0,1.734-8.385.743.743,0,0,0-1.45-.233,28.521,28.521,0,0,0-1.11,4.807c-.057-1.631.506-3.179.429-4.794-.033-.689-.924-1.293-1.482-.669a6.514,6.514,0,0,0-1.481,3.093c-1.756.828-4.076,5.522,2.8,10.874,1.455,1.133,2.747-1.067,1.865-2.3A11.053,11.053,0,0,1,46.511,288.237Z" transform="translate(-37.279 -227.116)" fill="#465362"/>
        <path id="Path_34" data-name="Path 34" d="M47.751,302.071c-4.34-1.383-8.13-3.508-10.342-6.823.515,15.517-1.009,19.4,12.67,22.288C48.836,313.042,47.385,307.093,47.751,302.071Z" transform="translate(-36.875 -228.827)" fill="#011936"/>
        <path id="Path_35" data-name="Path 35" d="M421.458,277.087q-.18-.966-.439-1.935c-2.932-10.934-10.885-19.348-20-25.663-17.36-12.032-37.742-19.539-58.6-22.6a185.363,185.363,0,0,0-62.676,1.739,210.54,210.54,0,0,0-33.806,9.567c-6.482,2.459-12.989,5.288-19.667,8.115-14.768,7.731-29.453,15.661-44.256,23.334-8.493,4.4-16.907,9.225-25.788,12.815-3.244,1.312-6.546,2.507-9.877,3.626-3.656,6.5-7.12,13.188-11.268,19.384.787-.229,1.576-.454,2.357-.706,9.227-2.985,17.483-5.754,26.076-9.43a192.234,192.234,0,0,0,22.16-11.428c7.2-4.261,14.271-8.751,21.5-12.974,5.646-3.3,11.41-6.974,17.526-9.5,1.433-1.031,3.03-1.931,4.386-2.8a32.181,32.181,0,0,1,5.92-3.047,79.9,79.9,0,0,1,11.278-7.483,3.433,3.433,0,0,1-3.449-5.133c-.065-1.98,2.923-3.112,4.507-2.5,2.361.916,2.227,4.365,1.073,6.123a4.063,4.063,0,0,1-.509.628,97.388,97.388,0,0,1,12.911-5.6,1.929,1.929,0,0,1-.5-1.758.654.654,0,0,1-.127-.67c.67-2.406,2.472-5.4,5.343-4.972.669.1,1.22.8,1.729,1.221a3.577,3.577,0,0,1,1.15,3.8,157.937,157.937,0,0,1,23.439-4.469,264.078,264.078,0,0,1,34.642-2.256c11.6.16,21.6,2.17,32.761,5.148a186.511,186.511,0,0,1,17.9,5.814,63.953,63.953,0,0,1,12.958,6.688,29.107,29.107,0,0,1,9.428,9.811c.77,1.381,1.644,2.866,2.477,4.4a.54.54,0,0,0,.264.241c5.355,2.262,11.259,5.631,15.3,9.557a24.929,24.929,0,0,1,2.88,3.329A.557.557,0,0,0,421.458,277.087ZM258.271,242.074l-.059-.358a.1.1,0,1,1,.2.006C258.38,241.926,258.306,242.279,258.271,242.074Z" transform="translate(-46.972 -221.567)" fill="#011936"/>
        <path id="Path_36" data-name="Path 36" d="M350.165,355.415a188.8,188.8,0,0,1-23.659,2.513.541.541,0,0,0-.176.037q-4.639,1.787-9.278,3.656c-8.8,3.55-17.582,7.364-26.44,10.948a.554.554,0,0,0,.182,1.068,387.606,387.606,0,0,0,41.474-.357C338.565,366.651,339.894,362.385,350.165,355.415Z" transform="translate(-63.012 -235.046)" fill="#011936"/>
        <path id="Path_37" data-name="Path 37" d="M458.9,303.282a.553.553,0,0,0-1.069-.172,30.992,30.992,0,0,1-1.278,2.905c-4.306,8.568-11.127,15.39-18.884,20.916a62.549,62.549,0,0,1-11.686,6.478c1.09,1.882,2.885,8.226-.714,15.648a100.779,100.779,0,0,0,17.778-12.02c5.678-4.921,11.966-11.277,14.213-18.649A45.1,45.1,0,0,0,458.9,303.282Z" transform="translate(-76.967 -229.602)" fill="#011936"/>
        <path id="Path_38" data-name="Path 38" d="M258.7,373.706c-1.169-2.484-4.647-4.038-7.192-5.037-7.137-2.8-16.193,3.6-21.906,5.865-12.817,5.072-16.143,4.328-20.927,7.277a59.4,59.4,0,0,0-5.114,3.873c2.578,5.738,4.677,11.666,6.718,17.616,3.5-1.415,5.989-4.194,9.277-5.985,6.913-3.768,14.619-4.438,22.177-6.131,7.99-1.791,9.145-3.778,12.931-8.656a1.96,1.96,0,0,0,.237-.3c.344-.444,1.4-1.807,1.728-2.209C258.257,378.361,260.528,376.184,258.7,373.706Zm-29.484,17.571a4.557,4.557,0,0,1-3.3.344,5.611,5.611,0,0,1-6.525-2.137c-1.877-2.658-.857-8.114,2.5-8.956a8.168,8.168,0,0,1,.966-.525c.743-.743,1.838-3.024,5.005-3.9,3.334-2.635,7.62-.691,9.008,2.7C242.36,385.129,235.283,396.081,229.219,391.277Zm19.732-6.153a5.389,5.389,0,0,1-3.81.5,4.909,4.909,0,0,1-1.446-.674c-5.33-1.165-4.755-8.376-1.7-10.662a5.933,5.933,0,0,1,1.969-2.16c3.439-2.531,8.519.065,9.338,4A7.886,7.886,0,0,1,248.952,385.125Z" transform="translate(-54.051 -236.344)" fill="#011936"/>
        <path id="Path_39" data-name="Path 39" d="M277.409,353.518a7.532,7.532,0,0,1,1-1.458,243.387,243.387,0,0,1-25.279,8.6.549.549,0,0,0-.037,1.047c3.355,1.2,6.627,3.692,9.233,5.679,2.237,1.705,5.4,4.375,4.237,7.33a.854.854,0,0,1,.1.275c-.161.363-.331.725-.475,1.1q-.175.233-.352.464a.553.553,0,0,0,.6.866l.031-.007c1.612.28-.187.357,19.53-7.637C275.255,372.274,270.925,356.991,277.409,353.518Z" transform="translate(-59.132 -234.699)" fill="#011936"/>
        <path id="Path_40" data-name="Path 40" d="M425.471,292.109a.551.551,0,0,0-.989-.308,41.849,41.849,0,0,1-11.724,9.893c1.2,7.308-2.98,14.555-8.912,19.445-9.876,8.14-25.992,12.738-37.571,14.435-7.126,1.045-4.07.475-9.337,4.722q4.539-1.43,9.151-2.663c8.373-2.217,51.638-10.826,58.1-28.856C426,303.729,425.779,297.809,425.471,292.109Z" transform="translate(-69.904 -228.448)" fill="#011936"/>
        <path id="Path_41" data-name="Path 41" d="M338.011,338.194c.008-1.878.211-3.734.385-5.6.068-.728.152-1.461.175-2.192.006-.22-.224-1.921.056-.69a5.182,5.182,0,0,1-.078-1.933,275.24,275.24,0,0,0-39.706,14.692c.3.028.6.06.906.108,2.524.407,4.295,3.743,3.454,6.083-2.129,5.914-4.362,14.019-10.165,17.445,7.3-2.943,14.618-5.839,21.9-8.792q4.819-1.953,9.638-3.888a.567.567,0,0,0,.263-.231,1.232,1.232,0,0,1,1.265-.534l.691-.111c2.568-1.016,5.139-2.02,7.72-2.995a.494.494,0,0,0,.276-.231.886.886,0,0,1,.863-.464l1.157-.165q3.395-1.258,6.815-2.44C339.712,345.486,337.994,342.1,338.011,338.194Z" transform="translate(-63.299 -232.189)" fill="#011936"/>
        <path id="Path_42" data-name="Path 42" d="M253.518,248.907c-3.375-1.488,1.613-5.2-.205-5.689,1-1.956-.041-3.36-4.291.95-.759-.012-.983.465-1.5,1.5-.123.123-.245.247-.367.371-1.142-1.008-1.919.473-3.074,2-2.976,1.581-5.3,4.52-7.564,6.945-1.155,1.236-2.347,2.519-3.49,3.849-.42.447-.835.889-1.253,1.309a1.186,1.186,0,0,0-.348.647q-.771,1-1.462,2.034c-.767.556-1.539,1.106-2.323,1.642-1.331.908-.26,3.112,1.194,2.266,6.483-3.773,12.979-7.534,19.356-11.485a1.49,1.49,0,0,0,.556-.6q2.3-1.376,4.508-2.885C255.2,251.665,254.966,248.844,253.518,248.907Zm-2.883-2.009-.033,0c-.063-.162-.122-.325-.186-.488.164-.154.333-.311.508-.47A6.524,6.524,0,0,0,250.635,246.9Z" transform="translate(-56.477 -223.254)" fill="#465362"/>
        <path id="Path_43" data-name="Path 43" d="M264.212,243.767a2.812,2.812,0,0,0-3.785-2.136.943.943,0,0,0-.051,1.63c.805.375,1.882.955.368,3.088-.176.186-.562.715-.724.932-1.032,1.383,1.146,3.5,3.039.824.023-.031.047-.061.069-.092A5.2,5.2,0,0,0,264.212,243.767Z" transform="translate(-59.859 -223.262)" fill="#465362"/>
        <path id="Path_44" data-name="Path 44" d="M284.85,237.311c-.552-.977-1.538-2.188-2.1-1.271-.066.109-.236.346-.157.429a.539.539,0,0,1,.038.049,10.286,10.286,0,0,0,1.063,3.759,1.183,1.183,0,0,0,1.589.492C286.5,240.127,285.6,238.649,284.85,237.311Z" transform="translate(-62.218 -222.673)" fill="#465362"/>
        <path id="Path_45" data-name="Path 45" d="M233.651,364.971c-5.623,1.975-11.143,4.211-16.919,5.738-4.485,1.185-9.088,1.952-13.564,3.214-.41-2.252-2.875-2.72-3.83-1.088a4.694,4.694,0,0,0-.362-.3c-.616-.434-1.339.233-1.225.881a9.37,9.37,0,0,0,1.036,2.556.911.911,0,0,0,.306.606,1.313,1.313,0,0,0,2.021.39c2.021.724,8.271.934,7.316-1.8a60.761,60.761,0,0,0,7.566-2.576c5.906-2.457,12.109-4.195,17.945-6.84C234.368,365.553,234.1,364.814,233.651,364.971Z" transform="translate(-53.448 -236.031)" fill="#465362"/>
        <path id="Path_46" data-name="Path 46" d="M347.807,351.25a30.548,30.548,0,0,0-7.384.814,1.4,1.4,0,0,0,.268,2.754c.617,0,1.229-.015,1.841-.047a.989.989,0,0,0,.495.213c2.3.285,4.7-.326,6.963-.7a1.271,1.271,0,0,0,1.11-1.5C352.382,351.44,351.5,350.129,347.807,351.25Z" transform="translate(-68.089 -234.572)" fill="#858f9a"/>
        <path id="Path_47" data-name="Path 47" d="M302.785,247.2c-1.99.666-3.562,2.331-5.073,3.731a40.523,40.523,0,0,0-4.845,5.733c-.187.251.221.582.429.348a58.662,58.662,0,0,1,4.814-4.674c1.665-1.488,3.782-2.72,5.135-4.5A.43.43,0,0,0,302.785,247.2Z" transform="translate(-63.276 -223.859)" fill="#616e7c"/>
        <path id="Path_48" data-name="Path 48" d="M421.3,265.825a.749.749,0,0,0-1.5-.047c-.252,4.849-1.67,7.644-.231,8.386a1.35,1.35,0,0,0,2.06-1.115C421.617,270.651,421.24,268.2,421.3,265.825Z" transform="translate(-76.312 -225.708)" fill="#616e7c"/>
        <path id="Path_49" data-name="Path 49" d="M137.07,265.353c-2.424,1.51-2.222,2.572-1.586,2.686.657.119.639.4,2.578-.806a7.268,7.268,0,0,0,2.255-1.965C140.819,264.525,140.026,263.513,137.07,265.353Z" transform="translate(-46.97 -225.629)" fill="#858f9a"/>
        <path id="Path_50" data-name="Path 50" d="M141.976,268.348c-.461.5.074,1.346.712,1a14.824,14.824,0,0,0,4.986-4C148.373,264.343,146.321,263.679,141.976,268.348Z" transform="translate(-47.666 -225.661)" fill="#858f9a"/>
        <path id="Path_51" data-name="Path 51" d="M160.956,259.671a1.139,1.139,0,0,0-1.934-.61,55.19,55.19,0,0,0-5.9,6.345c-.487.7.449,1.772,1.184,1.261a22.786,22.786,0,0,0,2.449-2,1.177,1.177,0,0,0,1.494.188c1.822-1.152,4.82-2.408,5.816-4.376C164.445,259.734,164.151,257.947,160.956,259.671Z" transform="translate(-48.823 -225.049)" fill="#858f9a"/>
        <path id="Path_52" data-name="Path 52" d="M169.666,260.054a10.093,10.093,0,0,0-2.8,1.661c-.974.633-2.035,1.054-3.038,1.624a.947.947,0,0,0,.409,1.773c2.229-.02,5.89-1.645,6.363-4.06A.8.8,0,0,0,169.666,260.054Z" transform="translate(-49.894 -225.186)" fill="#858f9a"/>
        <path id="Path_53" data-name="Path 53" d="M176.8,256.175c-1.4.616-2.582,1.339-2.377,2.238.407,1.786,3.839.1,4.519-1.4C179.458,255.885,177.546,255.848,176.8,256.175Z" transform="translate(-51.036 -224.769)" fill="#858f9a"/>
        <path id="Path_54" data-name="Path 54" d="M339.474,333.372c-2.368,2.488-3.257,6.275-4.688,9.325-.3.637.614,1.227.952.581,1.546-2.965,4.049-6,4.6-9.376C340.407,333.441,339.873,332.953,339.474,333.372Z" transform="translate(-67.608 -232.751)" fill="#465362"/>
        <path id="Path_55" data-name="Path 55" d="M345.7,336.556c.231-.556.467-1.109.687-1.669.566-1.446-1.66-2.26-2.379-1.054h0l-.005.01c-1.146,1.968-4.064,8.273-5.034,10.3-.7,1.453,1.1,3.29,2.364,1.92q2.515-2.734,5-5.5a1.352,1.352,0,0,0,1.168-.552,3.368,3.368,0,0,0,.669-1.7C348.381,337,346.863,335.511,345.7,336.556Z" transform="translate(-68.03 -232.755)" fill="#465362"/>
        <path id="Path_56" data-name="Path 56" d="M233.832,391.5a3.1,3.1,0,0,0-1.119.161,1.558,1.558,0,0,0-.9-1.384,5.489,5.489,0,0,1-5.75,3.7.788.788,0,0,0,.028.717c-.125.126-.253.25-.377.378-1.02,1.035-.151,3.19,1.429,2.681,2.514-.812,7.094-2.287,7.563-5.316A.91.91,0,0,0,233.832,391.5Z" transform="translate(-56.295 -238.65)" fill="#465362"/>
        <path id="Path_57" data-name="Path 57" d="M261.209,378.446c-.471-.745-1.89-.389-3.652,2.08a1.5,1.5,0,0,0-.4.224,1.373,1.373,0,0,0-1.635.479,21.629,21.629,0,0,0-2.194,3.44.572.572,0,0,0,0,.44c-.5.947-1,1.9-1.5,2.833a1.441,1.441,0,0,0,2.459,1.5l1.479-1.956c.847-.092.89-.323,4.066-4.939a1.1,1.1,0,0,0,1.019-.482,6.1,6.1,0,0,0,1.529-2.594A1.007,1.007,0,0,0,261.209,378.446Z" transform="translate(-59.018 -237.391)" fill="#465362"/>
        <path id="Path_58" data-name="Path 58" d="M242.114,372.075a1.989,1.989,0,0,0-.136-.368,1.542,1.542,0,0,0-2.041-.631c-.866.337-1.725.692-2.582,1.053a1.192,1.192,0,0,0-1.213.02l-3.012,1.774a1.333,1.333,0,0,0-.395,2.093c-.154.2-.313.405-.458.616a.837.837,0,0,0,.684,1.264,4.689,4.689,0,0,1,1.138.01.324.324,0,0,0,.245-.542c-.05-.046-.093-.1-.142-.146.594-.434,1.174-.893,1.741-1.366.91-.345,1.821-.688,2.73-1.037-.391.967-1.557,5.691-.878,6.406a6.891,6.891,0,0,0,.1.791.614.614,0,0,0,1.115.181,6.657,6.657,0,0,0,.429-.751.967.967,0,0,0,.459-.661l.293-1.482c.282-1.129.455-2.3.671-3.381a1.175,1.175,0,0,0-.632-1.3.679.679,0,0,0-.217-.334c.445-.177.892-.347,1.335-.532A1.5,1.5,0,0,0,242.114,372.075Z" transform="translate(-57.006 -236.65)" fill="#465362"/>
        <path id="Path_59" data-name="Path 59" d="M244.691,390.057a4.016,4.016,0,0,0-3.415-1.847,1.48,1.48,0,0,0-1.384.959c-.782.185-.9,1.43.339,2.293a1.228,1.228,0,0,0,1.292.548,6.248,6.248,0,0,0,2.229.093A1.422,1.422,0,0,0,244.691,390.057Z" transform="translate(-57.745 -238.436)" fill="#465362"/>
        <path id="Path_60" data-name="Path 60" d="M208.289,386.312c-2.186,1.3-3.3,6.115-1.865,8.225.226.33.829.5,1.045.033a10.2,10.2,0,0,0,.608-3.417C208.162,390.273,209.675,385.489,208.289,386.312Z" transform="translate(-54.279 -238.23)" fill="#465362"/>
        <path id="Path_61" data-name="Path 61" d="M211.249,391.658a.64.64,0,0,0-1.23-.039,24.358,24.358,0,0,0-.845,7.577c.075,1.063,1.762,1.545,2,.321A24.872,24.872,0,0,0,211.249,391.658Z" transform="translate(-54.626 -238.742)" fill="#465362"/>
        <path id="Path_62" data-name="Path 62" d="M148.124,295.835l0,0c-.343.776-.658,1.563-.977,2.348-.878.94-1.755,1.871-2.657,2.775a14.548,14.548,0,0,0,.561-3.015c.078-1.236-1.8-1.349-2.025-.347a15.439,15.439,0,0,0-1.279,2.792c-.262.251-.47.4-.255.733-.429,1.305-.788,2.641-1.2,3.865-.464,1.393,1.232,2.118,2.223,1.37.3-.226.59-.464.878-.706-.01.924,1.264,1.569,1.821.627a20.34,20.34,0,0,0,4.551-10.177C149.906,295.087,148.349,295.027,148.124,295.835Z" transform="translate(-47.502 -228.83)" fill="#465362"/>
        <path id="Path_63" data-name="Path 63" d="M156.523,292.429c-1.849,2.387-4.183,4.689-5.236,7.573-.216.592.542.92.959.59,2.4-1.894,3.884-4.883,5.571-7.374C158.374,292.4,157.108,291.673,156.523,292.429Z" transform="translate(-48.643 -228.502)" fill="#465362"/>
        <path id="Path_64" data-name="Path 64" d="M47.545,309.732a34.982,34.982,0,0,0-1.819-5.365.788.788,0,0,0-1.477.341,34.964,34.964,0,0,0,.771,5.6c.28,1.415.263,3.219,1.836,3.717a.731.731,0,0,0,.708-.169C48.746,312.712,47.928,311.121,47.545,309.732Z" transform="translate(-37.582 -229.727)" fill="#465362"/>
        <path id="Path_65" data-name="Path 65" d="M52.619,290.989a.985.985,0,0,0-1.175-.337c-.477-1.1-.316-1.769-1.2-1.823a9.13,9.13,0,0,1,.418-1.73c.181-.52-.593-.718-.8-.237a9.775,9.775,0,0,0-.626,6.585.675.675,0,0,0,1.326-.129c.007-.052.01-.116.014-.173a2.974,2.974,0,0,0,.6.686,4.194,4.194,0,0,0,2.294,2.713.935.935,0,0,0,1.148-.623C55.174,294.249,53.586,292.283,52.619,290.989Z" transform="translate(-38.064 -227.931)" fill="#465362"/>
        <path id="Path_66" data-name="Path 66" d="M339.985,359.288a17.772,17.772,0,0,0-2.825,6.166.42.42,0,0,0,.7.317,16.082,16.082,0,0,0,2.708-6.219A.351.351,0,0,0,339.985,359.288Z" transform="translate(-67.86 -235.436)" fill="#465362"/>
        <path id="Path_67" data-name="Path 67" d="M350.422,356.808c.393-1.224-.626-1.625-1.129-1.108-2.662,2.736-4.429,6.515-6.4,9.761-.746,1.231,1.009,2.765,2.015,1.636,2.332-2.616,4.636-5.256,6.943-7.9C352.871,358.027,351.55,356.323,350.422,356.808Z" transform="translate(-68.434 -235.052)" fill="#465362"/>
        <path id="Path_68" data-name="Path 68" d="M440.59,335.282c-.326.181-.642.378-.954.579.332-.733.645-1.479.924-2.25a1.183,1.183,0,0,0-1.933-1.191,65.582,65.582,0,0,0-6.475,7.753c.4-1.789.785-3.582,1.115-5.379a1.164,1.164,0,0,0-2.1-.933c-.854,1.325-1.62,2.678-2.332,4.053.039-.4.092-.8.126-1.192a1.154,1.154,0,0,0-2.251-.362,106.156,106.156,0,0,0-2.371,12.5c-.222,1.608,2.163,1.813,2.65.423l.022.007c.759-3.652.683-4.564,2.129-7.729q-.6,2.589-1.159,5.181c-.28,1.3,1.63,2.374,2.277,1.01a43.288,43.288,0,0,1,2.257-4.133,1.154,1.154,0,0,0,1.826.222c2.512-2.4,5.264-4.679,7.091-7.669A.64.64,0,0,0,440.59,335.282Z" transform="translate(-76.869 -232.636)" fill="#465362"/>
        <path id="Path_69" data-name="Path 69" d="M202.062,377.036a11.21,11.21,0,0,0-1.936-1.414,6.963,6.963,0,0,0-2.171-1.132c-.282-.054-.648.169-.538.5a14.117,14.117,0,0,0,3.165,3.865C201.64,379.691,203.006,377.957,202.062,377.036Z" transform="translate(-53.413 -237.017)" fill="#011936"/>
        <path id="Path_70" data-name="Path 70" d="M305.744,344.9c-.747,2.338-1.194,4.729-1.829,7.1-.546,2.034-2.178,4.427-1.667,6.509a.528.528,0,0,0,.753.346c2.012-1.09,2.412-4.192,2.935-6.257C307.376,346.893,306.217,343.412,305.744,344.9Z" transform="translate(-64.241 -233.923)" fill="#465362"/>
        <path id="Path_71" data-name="Path 71" d="M284.83,363.491c-.375.2-.738.412-1.1.63a1.559,1.559,0,0,0-2.372-.526,1.506,1.506,0,0,0-2.218-1.093c.452-1.6,1.172-3.959-.762-4.336.636-.648,1.16-.826,1.037-1.807.888-.756,1.778-1.507,2.659-2.269,1.471-1.273-.278-3.6-1.949-2.733-4.108,2.128-10.118,4-13,7.7a.724.724,0,0,0-.1.673,8.584,8.584,0,0,0-4.33.37.525.525,0,0,0-.029.909c1.554.711,3.3,1.016,4.916,1.583a17.586,17.586,0,0,1,4.478,2.434c-.134,1.654-.236,3.315-.309,4.972a1.66,1.66,0,0,0,2.163,1.759,1.6,1.6,0,0,0,2.653.811c.741-.738,1.474-1.482,2.209-2.225a1.864,1.864,0,0,0,.912-.143c2.809-1.153,5.3-2.766,6.352-5.712A.86.86,0,0,0,284.83,363.491Zm-11.781-1.678c.324-.229.649-.455.974-.684a1.815,1.815,0,0,0,1.539,1.864c-.078.221-.161.44-.245.659A4.372,4.372,0,0,0,273.049,361.814Z" transform="translate(-60.135 -234.607)" fill="#465362"/>
        <path id="Path_72" data-name="Path 72" d="M179.045,380.589c-2.311.2-4.66,2.032-6.121,3.753a9.964,9.964,0,0,0-2.128,5.724,3.133,3.133,0,0,0-.382.653.786.786,0,0,0,.143,1.374c0,.054.06.092.1.053.1.038.063.014.151.043a1.144,1.144,0,0,0,.959.7,1.052,1.052,0,0,0,.619,1.465,1.12,1.12,0,0,0,1.028-.1.82.82,0,0,0,.4-.873,1.161,1.161,0,0,0-.6-.9.92.92,0,0,0-.41-.144,1.512,1.512,0,0,0,.178-.493,3.709,3.709,0,0,0,1.057-1.406c1.106-.428,1.1-1.327.468-1.742a4.8,4.8,0,0,0-.082-1.591q.274-.545.568-1.084c1.137-2.09,2.633-3.227,4.273-4.847C179.457,380.988,179.359,380.562,179.045,380.589Z" transform="translate(-50.588 -237.648)" fill="#dbcbb0"/>
        <path id="Path_73" data-name="Path 73" d="M196.308,378.7c-.238-.635-1.568-.567-2.091-.085-1.5,1.388-3.04.49-3.691-1.155a1.2,1.2,0,0,0-1.053-.657c-4.064.159-7.958,3.716-6.718,2.967a6.85,6.85,0,0,1,5.681-.71c1.132,3.265,5.1,3.917,7.7,1.6C196.746,380.112,196.587,379.444,196.308,378.7Z" transform="translate(-51.875 -237.257)" fill="#dbcbb0"/>
        <path id="Path_74" data-name="Path 74" d="M197.031,412.17c-.415.334-.814.665-1.21.993-1.429-3.442-5.674,5.1-12.956.329a1.142,1.142,0,0,0-1.3-1.071,1.528,1.528,0,0,0-1.659.383c-.5.122-1.01.238-1.515.363a1.272,1.272,0,0,0-.831,1.811,9.778,9.778,0,0,0,3.434,3.9,1.341,1.341,0,0,0,1.662-.207,1.123,1.123,0,0,0,.784.1,1.634,1.634,0,0,0,.574.343.887.887,0,0,0,.278.367c2.05,1.608,5.512.675,7.74-.1,2.772-.959,5.767-2.78,7.291-5.354A1.5,1.5,0,0,0,197.031,412.17Z" transform="translate(-51.348 -240.876)" fill="#dbcbb0"/>
        <path id="Path_75" data-name="Path 75" d="M178.832,405.5a1.667,1.667,0,0,0-1.912-1.54l0-.011c-1.61.519-3.267,1.091-4.823,1.759-3.662,1.572-2.271,7.125,5.827,3.584C181.086,407.907,180.483,405.518,178.832,405.5Z" transform="translate(-50.599 -240.06)" fill="#dbcbb0"/>
        <path id="Path_76" data-name="Path 76" d="M163.655,395.364c-4.646-.154-9.941,2.375-14.251,3.968-18.226,6.738-13.617,8.122-12.874,7.911.058-.016.116-.038.174-.055a.942.942,0,0,0,1.317.689,122.361,122.361,0,0,1,25.134-8.471,1.228,1.228,0,0,0,.61-2.025c.1-.057.216-.1.318-.161A.992.992,0,0,0,163.655,395.364Z" transform="translate(-47.012 -239.175)" fill="#dbcbb0"/>
        <path id="Path_77" data-name="Path 77" d="M142.342,398.808c-.309.161-.617.323-.925.483a1.292,1.292,0,0,0-1.843-1.442,12.411,12.411,0,0,1-5.041,1.523.955.955,0,0,0-.057,1.836,7.459,7.459,0,0,0,1.123.169c-.751.688-1.5,1.376-2.243,2.078a1.271,1.271,0,0,0,1.456,2.042c2.879-1.527,5.85-2.9,8.782-4.317C145.15,400.427,143.877,398.014,142.342,398.808Z" transform="translate(-46.753 -239.414)" fill="#dbcbb0"/>
        <path id="Path_78" data-name="Path 78" d="M160.518,402.872c-6.314,1.114-13.358,2.995-18.608,6.785-2.551,1.842-3.173,5.277-2.591,8.393-.724,1.927-1.5,3.821-2.372,5.635-1.627.839-3.4,10.682-14.785,13.389-.176-.056-2.99.237-3.178.247a9.3,9.3,0,0,0-5.216-.954,12.545,12.545,0,0,1-7.22-13.7,14.577,14.577,0,0,1,4.73-5.244,13.126,13.126,0,0,1,4.4-1.732c2.008-.449,2.4-.157,2.987,1.2a1.063,1.063,0,0,0-.394.057c-4.484,1.574-8.254,6.522-6.944,11.471.112.421.815.52.909.029a10.93,10.93,0,0,1,3.131-6.289,9.7,9.7,0,0,1,2.94-1.895c.967-.43,1.586-.49,1.92-1.6a1.162,1.162,0,0,0,.015-.577,1.214,1.214,0,0,0,.506-.448.669.669,0,0,0,.407.207c1.345.18,2.588-.844,3.777-1.375,1.817-.814,3.76-.9,5.625-1.482a1.164,1.164,0,0,0-.222-2.287,12.309,12.309,0,0,0-5.41,1.126c-1.36.507-3.477,1.319-4.155,2.757l-1.115-2.5a.98.98,0,0,0-.847-.529c-6.01-.1-13.733,4.256-14.165,10.928a.411.411,0,0,0,.486.409c-.048.207-.085.412-.117.618-1.438,2.546-.567,5.709.992,8.372,2.267,6.886,9.2,9.78,16.16,8.314,6.191-1.3,12.352-7.3,14.534-13.72a38.674,38.674,0,0,0,3.766-7.124c1.208,2.244,1.627,1.493,1.652-1.075a.771.771,0,0,0,.164-.145c2.042-2.514,2.944-5.175,5.806-7.062a22.323,22.323,0,0,1,5.183-2.35c1.668-.564,3.139-.7,4.431-1.93a1.343,1.343,0,0,0,.177-1.638c1.233-.269,2.469-.511,3.7-.734C164.289,405.924,162.488,402,160.518,402.872ZM111.166,436.7q.416.258.846.494a1.178,1.178,0,0,0-.044.365c-.287-.175-.575-.349-.846-.548A1.19,1.19,0,0,0,111.166,436.7Z" transform="translate(-43.788 -239.938)" fill="#dbcbb0"/>
        <path id="Path_79" data-name="Path 79" d="M163.883,405.08c-3.947-1.291-9.627,1.867-13.054,3.679a15.735,15.735,0,0,0-3.994,2.909,2.923,2.923,0,0,0-1.466,2.415,3.678,3.678,0,0,0,.393,2.969c-5.955,12.139-6.132,10.783.377,1.54a.32.32,0,0,0,.279-.129,11.611,11.611,0,0,0,1.655-2.615.828.828,0,0,0-.225-.973,7.847,7.847,0,0,1,1.957-2.309c.069-.035.142-.072.2-.106,2.022-1.1,4.469-1.332,6.34-2.64a.673.673,0,0,0,.285-.806c2.555-.9,5.48-1.442,7.42-3.214A.431.431,0,0,0,163.883,405.08Z" transform="translate(-47.612 -240.148)" fill="#9e8d5f"/>
        <path id="Path_80" data-name="Path 80" d="M136.926,405.668c-.827.32-.294,1.749.541,1.457a20.012,20.012,0,0,0,5.914-2.82C144.124,403.711,141.773,403.791,136.926,405.668Z" transform="translate(-47.12 -240.066)" fill="#9e8d5f"/>
        <path id="Path_81" data-name="Path 81" d="M135.425,400.219c-.521.72.4,1.4,1.07,1.139.9-.353,1.723-.817,2.658-1.084a8.542,8.542,0,0,1,2.451-.28c.386.629.837,1.154,1.274.536a4.26,4.26,0,0,0,.747-1.411C144.4,396.407,137.7,397.077,135.425,400.219Z" transform="translate(-46.991 -239.388)" fill="#9e8d5f"/>
        <path id="Path_82" data-name="Path 82" d="M171.574,384.156a3.749,3.749,0,0,0-1.088,2.988.543.543,0,0,0,1.058.169,9.544,9.544,0,0,1,2.889-4.386C174.93,382.438,173.27,382.556,171.574,384.156Z" transform="translate(-50.631 -237.863)" fill="#9e8d5f"/>
        <path id="Path_83" data-name="Path 83" d="M176.236,381.514c-1.3.644,4.87-1.3,6.279-1.693,2.773-.782,5.759-1.418,7.669,1.1a.788.788,0,0,0,1.354-.512C191.028,375.106,180.974,379.163,176.236,381.514Z" transform="translate(-51.207 -237.36)" fill="#9e8d5f"/>
        <path id="Path_84" data-name="Path 84" d="M193.252,412.9a9.209,9.209,0,0,1-11.046.237c-.6-.4-1.175.55-.58.951a12.276,12.276,0,0,0,12.779.429A1,1,0,1,0,193.252,412.9Z" transform="translate(-51.757 -240.962)" fill="#9e8d5f"/>
        <path id="Path_85" data-name="Path 85" d="M134.759,432.351a30.4,30.4,0,0,0-4.122,3.42,38,38,0,0,1-4.359,3.542,28.456,28.456,0,0,1-9.477,2.732,11.961,11.961,0,0,1-4.747-1.323c-2.719-1.454-3.224-4.059-4.7-6.427a.061.061,0,0,0-.112.011c-1.133,4.935,6.016,8.676,10.1,8.769.2,0,.391-.011.586-.015,7.991,2.212,16.816-3.939,16.8-8.809a13.347,13.347,0,0,0,.821-1.054A.6.6,0,0,0,134.759,432.351Z" transform="translate(-44.081 -242.99)" fill="#9e8d5f"/>
        <path id="Path_86" data-name="Path 86" d="M142.21,408.5c-1.252.8-2.758,1.887-2.081,3.169.712,1.349,2.342.642,3.663-.17.818-.5,1.735-1.155,1.764-2.2C145.583,408.284,144.389,407.112,142.21,408.5Z" transform="translate(-47.476 -240.467)" fill="#fefefe"/>
        <path id="Path_87" data-name="Path 87" d="M171.364,384.65a1.027,1.027,0,0,0-1.878.187c-.231.788-.328,3.343.955,4.746.693.758,1.519-.921,1.432-2.218A7.074,7.074,0,0,0,171.364,384.65Z" transform="translate(-50.513 -238.013)" fill="#fefefe"/>
        <g id="Group_1" data-name="Group 1" transform="translate(120.119 153.674)">
          <path id="Path_88" data-name="Path 88" d="M171.4,392.808a1.152,1.152,0,0,0,1.074,2.038c.039-.022.1-.042.037-.024a1.346,1.346,0,0,0,.3-.128.976.976,0,0,0,.3-.112C174.491,393.718,172.8,391.9,171.4,392.808Z" transform="translate(-170.781 -392.56)" fill="#fefefe"/>
          <path id="Path_89" data-name="Path 89" d="M172.835,395.047Z" transform="translate(-170.993 -392.816)" fill="#fefefe"/>
        </g>
        <path id="Path_90" data-name="Path 90" d="M173.018,397.363c-1.9.178-4.54,1.678-4.931,3.415-.112.5.214,1.182.816,1.129a7.525,7.525,0,0,0,2.469-.922c.942-.432,2.024-.614,2.922-1.113l-.03-.042a1.343,1.343,0,0,0,.635-.794C176.228,398.108,175.155,395.781,173.018,397.363Z" transform="translate(-50.381 -239.326)" fill="#fefefe"/>
        <path id="Path_91" data-name="Path 91" d="M161.577,402.5c-3.358.272-6.588,2.192-9.526,3.7a.428.428,0,0,0,.294.793c3.171-.888,6.875-1.681,9.511-3.759A.429.429,0,0,0,161.577,402.5Z" transform="translate(-48.703 -239.913)" fill="#fefefe"/>
        <path id="Path_92" data-name="Path 92" d="M109.968,422.315c-3.683,1.8-2.629,3.284-1.689,3.3,1.123.021,4.083-.715,4.8-2.081C113.593,422.558,112.848,420.909,109.968,422.315Z" transform="translate(-44.108 -241.905)" fill="#fefefe"/>
        <path id="Path_93" data-name="Path 93" d="M127.387,414.619c-1.625-.321-1.34,2.029-.177,1.635a1.326,1.326,0,0,0,.949-1.052C128.3,414.678,127.822,414.7,127.387,414.619Z" transform="translate(-46.059 -241.162)" fill="#fefefe"/>
        <path id="Path_94" data-name="Path 94" d="M228.665,386.134a.685.685,0,0,0-.755.129c-.543.536-.229,1.294-.218,1.973.016,1.038-1.388,1.41-2.208,1.265-.344-.062-.513.438-.158.534a2.932,2.932,0,0,0,2.635-.559C229.5,388.284,229.711,386.494,228.665,386.134Z" transform="translate(-56.28 -238.215)" fill="#9e8d5f"/>
        <path id="Path_95" data-name="Path 95" d="M253.579,377.7a1.119,1.119,0,0,0-1.926-.06c-.657.947-.281,3.27-2.743,4.3-.53.221-.172.958.328.886C251.4,382.511,254.737,380.27,253.579,377.7Z" transform="translate(-58.711 -237.289)" fill="#9e8d5f"/>
        <path id="Path_96" data-name="Path 96" d="M257.315,245.478c-.161,1.141-.636,1.687-1.208,1.867a.828.828,0,0,0,.159,1.628,3,3,0,0,0,2.392-.992C261.262,244.847,257.635,243.23,257.315,245.478Z" transform="translate(-59.418 -223.574)" fill="#9e8d5f"/>
        <path id="Path_97" data-name="Path 97" d="M276.819,240.737c.014,0,.013.023,0,.023" transform="translate(-61.622 -223.192)" fill="none"/>
        <path id="Path_98" data-name="Path 98" d="M278.7,238.026c-.21,1.1-.292,1.213-2.138,2.546a.262.262,0,0,0-.054.319c1.459,2.35,4.861-.347,4.716-2.459A1.29,1.29,0,0,0,278.7,238.026Z" transform="translate(-61.587 -222.817)" fill="#9e8d5f"/>
        <path id="Path_99" data-name="Path 99" d="M225.772,384.79c-3.692,3.633-.412,4.316.392,3.526a14.829,14.829,0,0,0,1.654-1.864A1.333,1.333,0,0,0,225.772,384.79Z" transform="translate(-56.168 -238.043)" fill="#fffeee"/>
        <path id="Path_100" data-name="Path 100" d="M251.764,376.928a1.157,1.157,0,0,0-1.19-.916c.036,0-.9.179-.568.117A3.786,3.786,0,0,0,247.75,379c0,1.026,1.267,2.162,3.214.111a3.221,3.221,0,0,0,.695-1.038A1.643,1.643,0,0,0,251.764,376.928Z" transform="translate(-58.618 -237.175)" fill="#fffeee"/>
      </g>
      <g id="Group_3" data-name="Group 3" transform="translate(0 0)">
        <path id="Path_101" data-name="Path 101" d="M419.392,285.877a32.245,32.245,0,0,0-2.261-13.977c-3.487-8.944-9.372-18.3-16.9-24.355-16.618-13.382-37.931-21.516-58.686-25.594-24.714-4.856-49.821-3.489-74.282,1.7a1.037,1.037,0,0,0-.721-1c-3.866-1.348-7.6-.778-11.468.279-5.353,1.462-10.763,3.067-16.051,4.744-10.368,3.286-21.064,5.721-31.664,8.143-21.688,4.955-43.781,8.194-65.8,11.26-21.264,2.961-42.715,5.175-63.856,8.934a117.242,117.242,0,0,0-28.026,8.226c-5.964,2.7-13.6,7.109-14.359,14.232a4.685,4.685,0,0,0-.2,2.142,13.681,13.681,0,0,0,.589,3.682c.024,3,.076,6,.111,9.006.047,4.012-.374,8.267,1.624,11.9,3.457,6.287,14.441,6.92,20.5,8.071,9.6,1.825,18.893,1.476,28.636.6,10.429-.935,21.255-3.219,31.361-5.518,10.036-2.283,19.279-5.548,29.046-8.842a140.471,140.471,0,0,0,23.954-11.168c8.015-4.52,15.757-9.512,23.627-14.275,7.332-4.439,15.083-7.955,22.575-12.038C206.9,273.3,200.68,288.2,202.419,303.656a47.325,47.325,0,0,0,1.979,9.338.457.457,0,0,1,.016.067c.993,6.183,3.443,12.521,5.51,18.2,1.658,4.554,4.438,10.36,8.823,13.135a.556.556,0,0,1-.187,1.007c-6.075,1.45-12.055,3.443-18.013,5.239-6.819,2.057-14.338,3.525-20.891,6.44a.551.551,0,0,1-.527-.047,6.262,6.262,0,0,0-.848-.464.054.054,0,0,0-.077-.036c-3.807-1.669-9.5-.052-13.395,1.449-3.49,1.346-8.6,2.974-10.781,6.3-1.713,2.615-2.587,5.92-1.515,8.889a.546.546,0,0,1-.072.508,8.726,8.726,0,0,0-1.328,3.079c-.01,0-.021.007-.031.009a1.558,1.558,0,0,0-.376-.213c-.2.187-13.8,4.289-14.195,4.435a1.279,1.279,0,0,0-.967-.687.868.868,0,0,1-.785-.681c-.1-.3-.106-.419.071-.594,1.384-.616,2.747-1.277,4.076-2.009a1.4,1.4,0,0,0-.039-1.333c-.31-3.71-9.624-.915-11.445-.188-1.982.79-6.248,2.05-6.332,4.75a5.193,5.193,0,0,0,1.117,2.9c1.778,2.82.449,4.683-1.161,6.9-5.208,2.541-6.268,2.434-10.09,4.275a5.124,5.124,0,0,0-3.022-.151c-4.322.9-7.846,4.156-10.014,7.849-4.1,7-1.767,20.019,6.612,23.055,9.327,3.379,20.569-1.913,26.365-9.276,3.454-4.386,5.46-9.772,8.566-14.4,3.9-5.8,9.7-8.059,15.991-10.249.969,1.381,2.323,2.938,3.5,2.953a7.05,7.05,0,0,0,.886-.05.559.559,0,0,1,.545.258,21.65,21.65,0,0,0,3.066,3.935c2.862,2.827,7.079,3.753,10.965,3.5s7.444-2.236,10.409-4.645a11.223,11.223,0,0,0,1.915-1.949.487.487,0,0,1,.122-.117c.089-.058.169-.123.256-.184,1.412-1.929,2.44-3.194,4.417-4.033l.027-.021.046-.011a9.34,9.34,0,0,1,2.1-.583c3.995-1.45,6.951-4.531,10.748-6.569,5.047-2.709,11.064-3.718,16.627-4.8,4.385-.853,9.15-1.508,12.814-4.232,1.892-1.407,3.289-3.749,4.695-5.589.433-.567.863-1.136,1.3-1.7a.544.544,0,0,1,.154-.139q.576-.355,1.166-.687a.874.874,0,0,0,.069.057s4.581-.911,16.813-5.652a.909.909,0,0,0,.427.142,334.908,334.908,0,0,0,56.245-.455c8.983-.8,17.917-2.029,26.837-3.345,9-1.327,17.676-2.606,26.038-6.345,14.122-6.313,28.584-13.378,39.862-24.176,5.406-5.176,10.182-11.564,12.014-18.907,1.673-6.71.873-14.791-.126-21.828A.509.509,0,0,1,419.392,285.877ZM36.635,279.063c.064-.269.12-.539.16-.812,2.86-8.238,11.908-11.937,19.617-14.775,9.1-3.35,18.721-5.229,28.281-6.676,20.033-3.031,40.206-5.14,60.265-8,20.639-2.936,41.068-6.406,61.427-10.9,9.727-2.147,19.337-4.688,28.963-7.221,5.049-1.33,9.979-3.024,15.021-4.339,4.71-1.227,9.273-3.213,14.085-2.079A288.457,288.457,0,0,0,226.8,235.606c-46.565,10.081-93.33,18.6-140.536,25.116-11.225,1.55-22.73,3.039-33.52,6.636C47,269.273,37.46,274.583,39.189,282.165c.764,3.348,5.363,4.993,8.09,6.136a60.832,60.832,0,0,0,15.639,4.205c10.668,1.414,22.023-.205,32.585-1.845A206.081,206.081,0,0,0,152.9,272.65c7.039-3.353,13.915-7.03,20.771-10.743a16.273,16.273,0,0,0,1.852-.737.5.5,0,0,0,.3-.43c28.272-15.335,32.893-16.807,32.893-16.807h0c.03-.013.057-.027.089-.039a.362.362,0,0,1,.078-.015c4.608-1.869,9.14-3.824,13.831-5.54a70.472,70.472,0,0,1,8.036-2.645l.008,0c.056-.013.11-.03.165-.044C267.681,223.1,306.482,216.271,345.1,224.6a151.086,151.086,0,0,1,32.506,11.25c9.629,4.545,19.505,10.05,26.825,17.906,3.755,4.03,6.305,9.348,8.789,14.221,2.848,5.59,4.534,11.415,3.96,17.714-.964,10.57-8.651,19.872-16.138,26.768-13.261,12.216-30.787,15.679-47.725,20.077-14.981,3.89-30.208,7.21-45.65,8.416q2.777-1.018,5.565-2a.571.571,0,0,1,.093-.024c20.766-3.443,41.256-7.664,60.843-15.658,17.382-7.094,37.788-18.489,39.665-39.357,1.812-20.146-17.029-34.522-32.53-43.205-17.336-9.711-36.83-15.082-56.508-17.223a185.235,185.235,0,0,0-58.189,3.332,211.477,211.477,0,0,0-30.446,8.887c-4.086,1.532-8.076,3.263-12.057,5.008a.4.4,0,0,1-.053.031l-.053.014-.088.039c-2.953,1.514-6.866,2.686-9.816,4.213l-.232.1a.2.2,0,0,1,0,.022c-12.17,6.3-24.424,12.463-36.571,18.809-15.451,8.07-30.432,16.275-47.1,21.594a199.459,199.459,0,0,1-49.166,9.347,140.172,140.172,0,0,1-25.015-.89c-6.813-.846-15.482-2.889-18.928-9.122C37.063,284.443,36.958,279.333,36.635,279.063Zm168.828-34.84c-10.544,4.643-20.537,10.377-30.661,15.852-5.7-.187-11.35,2.527-17.006,3.024-5.446.478-10.948,1.887-16.312,2.923-11.525,2.225-22.9,4.5-34.651,5.106-11.063.568-21.808,2.9-32.453,5.858-7.212,2.007-18.374,3.394-22.222,10.839a51.994,51.994,0,0,1-7.637-3.153c-7.421-3.787-.308-10.862,4.047-13.369,4.772-2.748,10.5-3.894,15.812-5.095,11.561-2.615,23.4-3.857,35.123-5.489q18.08-2.518,36.1-5.465c26.592-4.326,53.129-9.253,79.461-15.017C214.812,240.339,205.565,243.977,205.463,244.223Zm-35.807,18.622c-28.577,15.289-57.02,26.251-90.663,27.789-8.765.4-17.1.033-25.2-2.31,3.012-4.572,7.726-6.061,26.607-10.764,21.052-5.244,21.886-1.646,63.052-9.6a158.668,158.668,0,0,0,15.948-3.44C162.676,263.53,166.229,263.4,169.656,262.845ZM394.6,291.6c-.063-4.263-.141-8.527-.277-12.789a.516.516,0,0,1,.028-.185,13.317,13.317,0,0,0,.571-6.645,19.787,19.787,0,0,0-1.249-4.114.555.555,0,0,1,.8-.694c2.641,1.6,5.33,3.144,7.867,4.905a23.321,23.321,0,0,1,6.284,6.294c1.585,2.408,1.457,4.94,2.3,7.527a.679.679,0,0,0,.182.274c-5.614,30.145-55.491,43.2-85.914,48.82,4.689-1.454,9.419-2.812,14.228-4.027,14.439-3.647,29.117-7.315,41.691-15.632,5.158-3.413,9.708-7.619,12.213-13.356C394.728,298.754,394.65,295.035,394.6,291.6ZM214.365,260.812c-6.117,2.523-11.88,6.2-17.526,9.5-7.226,4.223-14.293,8.713-21.5,12.974a192.24,192.24,0,0,1-22.16,11.428c-8.592,3.676-16.849,6.445-26.076,9.43-9.168,2.965-18.768,4.208-28.735,6.068-9.381,1.752-18.687,3.1-28.621,2.58a110.035,110.035,0,0,1-15.516-2.277c-4.027-.8-8.2-1.417-11.9-3.284-5.307-2.681-4.794-8.79-4.971-13.884-.069-1.993-.13-3.988-.2-5.982,5.769,8.643,22.26,9.207,31.27,9.574,18.173.741,36.633-2.4,54.071-7.334a227.934,227.934,0,0,0,23.385-7.765c8.881-3.589,17.3-8.411,25.788-12.815,14.8-7.673,29.488-15.6,44.256-23.334,6.678-2.827,13.185-5.657,19.667-8.115a210.539,210.539,0,0,1,33.806-9.567,185.363,185.363,0,0,1,62.676-1.739c20.858,3.057,41.24,10.563,58.6,22.6,9.111,6.315,17.064,14.729,20,25.663q.26.97.439,1.935a.557.557,0,0,1-1,.432,24.929,24.929,0,0,0-2.88-3.329c-4.038-3.926-9.943-7.3-15.3-9.557a.539.539,0,0,1-.264-.241c-.834-1.539-1.707-3.023-2.477-4.4a29.107,29.107,0,0,0-9.428-9.811,63.953,63.953,0,0,0-12.958-6.688,186.5,186.5,0,0,0-17.9-5.814c-11.159-2.978-21.161-4.988-32.761-5.148a264.076,264.076,0,0,0-34.642,2.256,157.934,157.934,0,0,0-23.439,4.469,3.577,3.577,0,0,0-1.15-3.8c-.508-.419-1.06-1.123-1.729-1.221-2.871-.423-4.673,2.566-5.343,4.972a.654.654,0,0,0,.127.67,1.929,1.929,0,0,0,.5,1.758,97.387,97.387,0,0,0-12.911,5.595,4.063,4.063,0,0,0,.509-.628c1.154-1.758,1.288-5.207-1.073-6.123-1.584-.615-4.573.517-4.507,2.5a3.434,3.434,0,0,0,3.449,5.133,79.9,79.9,0,0,0-11.278,7.483,32.182,32.182,0,0,0-5.92,3.047C217.4,258.88,215.8,259.781,214.365,260.812Zm41.156-21.45c-1.047.315-2.087.648-3.124.992-.235-.363-.891-.588-.932-.645-.143-.2-.094-.447-.224-.657.382-.958-.889.249,1.055-2.511a2.087,2.087,0,0,1,2.308-1.106c.81.981,2.043,1.773,1.086,3.181A.963.963,0,0,0,255.522,239.362Zm-21.5,6.406c-1.293.04-1.98-1.4-.238-3.1.464-.259.882-.654,1.336-.9C237.13,240.693,237.491,245.659,234.026,245.768Zm-23.281,82.391c-.43-1.18-.835-2.383-1.227-3.6a.553.553,0,0,1,.948-.529c6.984,8.012,18.347,10.863,28.784,12.608l1.053.172a.557.557,0,0,1,.114,1.068c-8.254,3.207-17.844,6.644-19.018,6.886a.87.87,0,0,0-.139-.81C216.641,338.489,215.411,340.946,210.745,328.159Zm-28.582,30.2a1.314,1.314,0,0,1,.824-.193c6.512-1.488,13.024-4.127,19.3-6.048,3.767-1.154,7.569-2.25,11.343-3.429,16.519-4.574,32.4-10.778,48.378-17.455,10.847-4.532,21.629-9.2,32.529-13.606a299.857,299.857,0,0,1,34.781-11.248c11.432-3.07,22.954-5.626,34.245-9.219,8.87-2.823,17.954-6.126,23.522-14.031,5.3-7.526,3.046-16.511-1.97-23.447-5.223-7.224-13.743-11.546-21.707-15-10.127-4.391-21.523-6.033-32.334-8.163-.1-.011-.2-.03-.3-.05a1.416,1.416,0,0,1-.237-.006c-.6-.056-1.435-.2-2.143-.2h0a.537.537,0,0,0-.065-.014,197.658,197.658,0,0,0-29.063.134c-9.919.7-19.992,1.278-29.8,2.981-9.418,1.636-18.248,5.565-26.868,9.544-8.1,3.74-15.752,7.574-21.452,14.644-5.472,6.787-10.726,15.592-12.945,24.056-1.094,4.175-.924,8.66-.842,12.93.082,4.237.39,8.755,2.047,12.7,3.039,7.246,8.718,10.9,15.662,13.987,7.217,3.207,15.663,4.866,23.542,6.293a.556.556,0,0,1,.109,1.062q-1.521.617-3.045,1.227A.536.536,0,0,1,245,335.6a1.192,1.192,0,0,0-.927-.609c-9.758-1.178-19.888-2.72-28.12-8.486-9.919-6.948-12.49-20.135-11.775-31.469,1.328-21.036,17.2-37.866,35.083-47.138,20.894-10.832,44.9-12.59,67.92-14.14,12.261-.827,23.9,1.115,35.944,3.729,11.71,2.541,23.368,6.257,33.773,11.97,7.568,4.156,11.477,12.074,14.982,19.538a11.752,11.752,0,0,1,1.035,7.1,4.7,4.7,0,0,1-.12.93,19.459,19.459,0,0,1-.839,2.213.391.391,0,0,1-.016.041c-2.391,5.422-8.119,9.943-12.927,12.975-6.909,4.359-14.8,6.95-22.532,9.418-8.884,2.838-17.88,5.316-26.865,7.81-17.6,4.888-35.235,9.843-52.034,17.116-8.688,3.761-17.18,7.955-25.958,11.514-8.559,3.47-17.407,6.207-26.154,9.168a.515.515,0,0,1-.11.023c-5.283.5-11.02,3.8-15.664,5.579-4.714,1.8-9.479,3.584-14.279,5.257q-1.427.574-2.865,1.119a16.331,16.331,0,0,1-2.99,1.062c-.122.039-.242.084-.364.124a10.7,10.7,0,0,1-3.951.737,3.433,3.433,0,0,1-3.4-1.381.965.965,0,0,1-.188-.744A.552.552,0,0,1,182.163,358.358Zm30.2-45.484a.555.555,0,0,1-1.063.226c-2.73-6.6-3.389-18.2-.493-27.527,1.66-5.344,8.926-18.025,14.122-23.668,8.21-8.917,35.1-19.21,47.683-21.326,11.96-2.012,40.405-4.294,57.542-2.506l.048.007c19.105,3.555,42.046,6.776,53.917,23.832,4.9,7.034,4.759,14.958.518,20.618a.559.559,0,0,1-.962-.11c-6.785-15.231-27.208-19.209-41.572-23.459-35.654-10.55-80.008-8.216-108.539,14.455-6.682,5.31-14.005,11.255-17.909,19C212.429,298.811,212.306,305.894,212.359,312.874Zm22.39-38.193C260.112,254.264,302.975,250.73,337.343,260c25.247,6.814,39.965,12.077,44.434,24.544a1.525,1.525,0,0,0,.441.658c-9.3,8.7-28.352,12.37-41,15.94-17.376,4.9-31.738,8.131-65.834,22.378-7.78,3.25-15.543,6.527-23.339,9.708a.543.543,0,0,0-.383-.36c-12.07-3.721-30.47-4.746-38.313-16a.468.468,0,0,0,.053-.232C212.69,291.241,221,285.746,234.748,274.681ZM168.971,389.6a.556.556,0,0,1,.332-.681c3.675-1.362,2.755-5.841,1.844-9.413-.44-1.725-1.041-3.941-2.688-4.851a1.816,1.816,0,0,0-.934-.215c-.57-.461-1.751.238-2.624-.622a18.349,18.349,0,0,1,1.186-4.359,5.817,5.817,0,0,1,1.969-2.431.555.555,0,0,1,.871.435c.2,4.453,3.632,11.334,4.307,12.991q1.485,3.646,2.971,7.293a18.3,18.3,0,0,0,1.433,3.2.547.547,0,0,1-.2.782,6.983,6.983,0,0,1-5.6.78,5.319,5.319,0,0,1-2.719-2,.57.57,0,0,1-.124-.446A1,1,0,0,0,168.971,389.6Zm-.235-4.274c-.137.039-.282.085-.425.138-.089-.064-.166-.126-.281-.064a28.545,28.545,0,0,0-1.343-6,12.409,12.409,0,0,0-1.093-2.231.558.558,0,0,1,.2-.781c.8-.439,1.869-.954,2.486-.064a11.488,11.488,0,0,1,1.212,3.562,10.749,10.749,0,0,1,.323,4.936.569.569,0,0,1-.539.411A2.282,2.282,0,0,0,168.736,385.326Zm2.084-16.408a.452.452,0,0,0-.1-.152c-.448-2.564-.418-3.315,3.394-2.271-.127.988,1.085,1.769,2.13,2.1a8.446,8.446,0,0,0,3.461-.725,31.359,31.359,0,0,0,3.463-2.127c.376-.254.752-.491,1.13-.727,1.076-.5,2.138-1.141,3.034-1.522a36.485,36.485,0,0,0,4.576-1.923c9.393-3.208,18.636-6.841,27.862-10.524a19.591,19.591,0,0,1,8.427-1.766,5.321,5.321,0,0,1,1.672.392.555.555,0,0,1-.212,1.071,16.769,16.769,0,0,0-6.378,1.28c-6.8,2.728-13.169,6.158-20.176,8.446-5.529,1.806-10.833,2.963-15.593,6.481C183.491,369.918,173.97,377.012,170.819,368.918ZM127.1,377.336c.9-.431,6.189-2.564,9.189-2.42.43.44.446.263.91.621-4.4,1.888-9.636,3.854-13.412,6.887-.247-.363-.5-.718-.714-1.053C121.775,379.359,126.089,377.822,127.1,377.336Zm-2.345,7.211a1.336,1.336,0,0,1,.082-1.606l7.99-3.062a2.6,2.6,0,0,0,.921,2.2c-3.847,1.661-7.3,3.8-9.528,6.784-.069.013-.137.036-.206.051A6.554,6.554,0,0,0,124.758,384.547Zm-1.937,13.059a12.408,12.408,0,0,1,1.527-.376c1.7,12.323-9.146,17.524-15.154,17.336q-3.989-2.959-1.881-6.36a12.574,12.574,0,0,1,1.93-2.943c1.35-.985,2.922-1.721,4.285-2.628a2.664,2.664,0,0,0,1.21-1.72c2.832-.74,2.239-.915,8.08-3.379C122.82,397.56,122.82,397.583,122.821,397.606Zm-1.531-5.468c.765,1.713.664,2.319,1.238,2.507.02.152.042.306.064.459a.6.6,0,0,0-.555.109c-2.456.965-5.163,2.628-7.718,2.779l0,0a.4.4,0,0,0-.154.019,9.526,9.526,0,0,0-1.984-2.92C113.937,394.623,114.7,394.344,121.29,392.138Zm35.456-2.433a1.432,1.432,0,0,0-1.7-1.409c-6.892.976-13.17,5.227-17.412,10.6-5.6,7.091-7.542,16.044-15.569,21.176a25.4,25.4,0,0,1-12.745,3.652c-5.753.211-9.33-3.929-11.117-8.965a15.191,15.191,0,0,1,1.981-13.814,14.772,14.772,0,0,1,5.29-4.43c1.323-.714,4.224-1.808,5.568-.441a7.358,7.358,0,0,1,1.323,1.934,1.537,1.537,0,0,1,.676,1.754c.113.112.219.235.325.356-.012.022-.028.043-.04.065a.414.414,0,0,0-.117.036c-3.9,2.081-8.637,5.557-8.861,10.5a6.247,6.247,0,0,0,.805,3.665c1.368,2.8,5.147,3.7,8.155,3.37,5.018-.551,11.016-4.674,13.034-9.314a17.415,17.415,0,0,0,1.507-7.792c-.126-3.391-2.533-6.043-2.719-9.442a.968.968,0,0,0-.312-.664,7.946,7.946,0,0,1,.4-.785c.013-.017.03-.03.042-.048a.568.568,0,0,0,.083-.164c2.3-3.624,7.383-4.5,11.744-5.921l7.933-2.59c1.692-.552,4.25-.871,5.763-1.995.124-.034.564-.157.743-.21a1.009,1.009,0,0,0,1.485-.881,8.907,8.907,0,0,1,1.31-3.614l.006-.014a.866.866,0,0,0,.238-.758c-.559-3.328-.553-6.015,1.755-8.756,1.632-1.939,4.7-2.9,6.944-3.919,4.078-1.853,10.432-4.49,14.638-2.452a.555.555,0,0,1,.208.2c.01.014.027.022.037.036a3.389,3.389,0,0,1,.524.242c.048.029.094.065.143.1a.441.441,0,0,1,.122.06c.035.027.065.061.1.088a5.073,5.073,0,0,1,2.09,3.393,2.559,2.559,0,0,1-1.947,3.023,3.34,3.34,0,0,1-2.512-.426,9.561,9.561,0,0,1-1.69-1.157c-.114-.032-.223-.056-.34-.094-.362-.116-.734-.217-1.111-.308a8.592,8.592,0,0,0-5.67.207c-.405.159-.806.325-1.206.5a.454.454,0,0,1-.1.03c-1.678.273-3.2,2-4.175,3.205a10.359,10.359,0,0,0-2.228,7.133,1.032,1.032,0,0,0,1.236,1.016,1.987,1.987,0,0,0,.393-.122c1.351,2.094,3.747,4.28,4.23,11.547-.9,1.381-1.476,2.629-3.516,3.354A5.834,5.834,0,0,1,156.746,389.7Zm25.689,6.6a15.275,15.275,0,0,1-12.134,3.117,11.7,11.7,0,0,1-7.289-4.585.557.557,0,0,1,.325-.886,8.1,8.1,0,0,0,1.486-.574,15.559,15.559,0,0,0,2.621-1,.955.955,0,0,0,.372-.073,6.956,6.956,0,0,0,2.676,1.972,8.93,8.93,0,0,0,8.454-1.025.553.553,0,0,1,.494-.047,12.078,12.078,0,0,1,3.666,1.616,1.519,1.519,0,0,0,.667.325C183.352,395.547,182.894,395.928,182.435,396.3Zm56.506-31.351c-.094.121-1.436,1.842-1.522,1.969,0,0-.322.4-2.278,2.92-6.629,8.549-20.588,5.308-33,12.071-5.231,2.85-7.406,7.759-21.561,8.5-1.837.1-4.877-9.377-5.549-10.908-.43-.976-1.578-3.135-2.6-5.516a.556.556,0,0,1,.765-.715,10.262,10.262,0,0,0,4.145.9c5.538.137,9.621-5.114,13.921-7.766,3.294-2.031,7.343-2.76,11.018-3.821,15.076-4.354,19.86-9.836,27.154-9.855,3.777-.738,9.347,2.416,11.026,4.334a8.6,8.6,0,0,1,.991,1.469C243.136,361.288,240.174,363.455,238.941,364.95Zm8.167-2.11a4.564,4.564,0,0,1-3.142.816l-.031.007a.553.553,0,0,1-.6-.866q.176-.231.351-.464c.144-.371.314-.733.475-1.1a.853.853,0,0,0-.1-.275c1.167-2.955-2-5.625-4.237-7.33-2.606-1.987-5.877-4.478-9.233-5.679a.549.549,0,0,1,.037-1.047c28.379-8.1,38.281-15.137,58.308-22.746,35.193-13.37,74.706-18.812,93.816-32.076a38.231,38.231,0,0,0,8.453-7.791.551.551,0,0,1,.989.308c.89,16.521-.691,22.29-17.483,31.713-17.995,10.1-34.378,9.942-64.567,21.13-1.251.178-1.757.1-2.02.629-.1.2-7.792,3.145-8,3.226l-.691.111a1.232,1.232,0,0,0-1.265.534.567.567,0,0,1-.263.231q-4.823,1.925-9.638,3.888C274.555,351.627,260.713,356.981,247.108,362.84Zm155.6-34.467c-10.994,9.526-25.286,16.216-38.6,21.82-8.093,3.405-17.114,4.16-25.723,5.416a366.2,366.2,0,0,1-73.967,3.921.554.554,0,0,1-.182-1.068c8.858-3.584,17.638-7.4,26.44-10.948.254-.1,9.181-3.682,9.454-3.692,24.424-.95,79.088-12.648,97.2-25.554,8.546-6.088,16.6-14.439,20.162-23.821a.552.552,0,0,1,1.069.172C419.173,310.168,414.818,317.883,402.711,328.374Z" transform="translate(-35.08 -218.947)" fill="#231f20"/>
        <path id="Path_102" data-name="Path 102" d="M168.308,396.27c4.133,3.794,2.346,9.468,2.775,11.461.173.805,2.422.024.587-7.048C170.236,395.149,167.565,395.587,168.308,396.27Z" transform="translate(-48.838 -237.236)" fill="#231f20"/>
        <path id="Path_103" data-name="Path 103" d="M272.608,243.633a.1.1,0,1,0-.2-.006l.059.358C272.5,244.19,272.574,243.838,272.608,243.633Z" transform="translate(-59.611 -221.486)" fill="#231f20"/>
        <path id="Path_104" data-name="Path 104" d="M223.609,381.832c-3.353.843-4.373,6.3-2.5,8.956,4.069,5.764,13.53.653,10.2-7.247C229.77,379.9,226.462,379.986,223.609,381.832Zm-.69,7.668a2.38,2.38,0,0,1-.319-.382c.138-.743-1.686-3.9,2.25-5.913,1.333-.681,3.5-.672,4.224.785C231.531,388.931,227,393.391,222.919,389.5Z" transform="translate(-54.213 -235.655)" fill="#231f20"/>
        <path id="Path_105" data-name="Path 105" d="M251.02,373.693a.543.543,0,0,0-.331-.194,6.381,6.381,0,0,0-4.984,1.718,7.822,7.822,0,0,0-1.724,6.442c1.061,4.355,6.331,5.247,9.217,2.138C255.647,381.161,255.868,374.31,251.02,373.693Zm1.014,8.36c-1.876,3.2-5.776,1.265-5.834-1.892-.046-2.438.86-4.641,3.3-4.783C253.367,375.154,253.546,379.472,252.034,382.053Z" transform="translate(-56.658 -234.917)" fill="#231f20"/>
        <path id="Path_106" data-name="Path 106" d="M154.377,409.309c-7.931,5.718-9.787,11.842-9.2,11.063,9.674-12.748,15.467-10.837,21.465-14.121C168.869,405.034,162.847,403.2,154.377,409.309Z" transform="translate(-46.45 -238.18)" fill="#231f20"/>
      </g>
    </g>
  </g>
</svg>
