<svg width="216" height="169" viewBox="0 0 216 169" fill="none" xmlns="http://www.w3.org/2000/svg">
<g id="dogRunning">
<path id="path" d="M0.748001 163.329C0.748001 163.329 15.742 158.629 45.421 157.058C75.1 155.487 76.795 154.285 119.466 157.058C162.137 159.831 199.429 165.568 199.429 165.568" stroke="#011936" stroke-width="5" stroke-linecap="round"/>
<g id="dog">
<path id="Path 1" fill-rule="evenodd" clip-rule="evenodd" d="M111.135 49.879C105.725 45.916 103.429 34.245 90.289 34.245C82.169 34.245 70.933 40.097 70.933 47.645V49.879C70.933 54.351 75.395 58.813 79.867 58.813H83.589C89.773 58.813 100.629 53.802 109.646 53.601C108.658 55.66 107.546 63.013 106.563 66.152C104.696 72.118 104.145 72.199 101.817 77.041C98.534 83.874 93.843 90.825 84.333 90.825C70.172 90.825 60.433 83.125 53.602 75.399C50.036 71.367 46.331 67.192 43.887 62.036C41.136 56.23 41.841 46.902 35.198 46.902H32.964C27.732 46.902 20.308 61.279 20.308 68.492V73.704C20.308 84.322 32.125 96.782 41.153 96.782C41.5485 96.7985 41.9431 96.7328 42.3119 96.589C42.6807 96.4452 43.0156 96.2264 43.2955 95.9465C43.5754 95.6666 43.7942 95.3317 43.938 94.9629C44.0818 94.5941 44.1475 94.1995 44.131 93.804C44.131 89.553 26.263 88.167 26.263 73.704V68.495C26.263 63.284 31.202 53.927 35.197 52.861C35.197 70.804 62.143 96.784 80.611 96.784H84.333C94.513 96.784 101.072 90.262 105.178 84.128C113.561 89.741 124.63 103.484 139.424 103.484H147.614C149.942 103.484 149.723 102.148 150.632 100.484L149.102 97.527C136.351 97.527 133.12 97.09 124.826 92.027C122.118 90.373 108.9 80.427 108.9 78.174C108.9 77.702 112.293 68.907 112.857 67.241C114.315 62.941 113.968 58.495 115.583 54.332C119.199 45.008 124.792 45.068 133.916 41.397C140.234 38.855 169.479 22.259 173.671 18.616C181.188 23.649 193.74 31.572 204.194 24.572C207.61 30.9895 209.4 38.147 209.406 45.417V54.351C209.406 65.689 199.799 77.551 192.274 81.887C180.481 88.675 171.481 87.853 153.574 87.853C152.674 89.197 152.085 89.162 152.085 90.831C152.068 91.2265 152.134 91.6211 152.278 91.9899C152.422 92.3587 152.641 92.6936 152.92 92.9735C153.2 93.2534 153.535 93.4722 153.904 93.616C154.273 93.7598 154.667 93.8255 155.063 93.809H169.953C195.092 93.809 215.366 76.591 215.366 51.374V43.929C215.366 29.02 204.023 3.72902 190.054 3.72902H188.566C185.618 3.72902 153.966 23.25 149.259 26.214C143.031 30.131 136.125 33.346 129.27 36.748C121.56 40.564 113.586 40.701 111.135 49.879Z" fill="#011936"/>
<path id="Path 2" fill-rule="evenodd" clip-rule="evenodd" d="M109.646 134.75C103.663 138.55 68.219 136.983 56.788 136.983C42.427 136.983 35.559 148.15 24.031 148.15C22.316 148.15 21.798 147.632 21.798 145.917C21.798 143.043 27.41 139.238 29.44 137.181C32.2065 134.091 34.4876 130.598 36.205 126.823C39.005 121.107 43.388 108.475 43.388 100.504C43.388 98.789 42.87 98.27 41.154 98.27H40.409C38.74 98.27 38.775 98.859 37.431 99.759C37.431 107.099 32.691 121.172 29.98 125.81C27.493 130.066 26.611 131.721 22.738 134.947C20.227 137.039 15.838 141.077 15.838 145.173V147.406C15.838 151.421 19.52 154.106 23.283 154.106H26.261C36.746 154.106 44.354 142.939 58.273 142.939H61.251C85.721 142.939 106.436 145.42 123.613 136.412C123.613 136.412 137.593 153.291 145.455 156.784C153.317 160.277 154.268 160.173 154.994 151.128C155.72 142.083 148.359 131.052 148.359 120.605C148.359 115.667 151.336 113.286 151.336 110.926C151.336 110.02 149.796 108.693 148.359 108.693H147.614C135.714 108.693 148.753 146.922 149.102 151.128C142.041 149.483 127.835 130.283 124.534 130.283H123.794C119.931 130.283 115.493 134.619 109.646 134.75Z" fill="#011936"/>
<path id="Path 3" fill-rule="evenodd" clip-rule="evenodd" d="M146.87 59.557C147.637 56.267 149.57 53.601 153.57 53.601C154.813 53.6572 156.002 54.1279 156.947 54.9382C157.892 55.7485 158.539 56.8516 158.784 58.072C154.174 55.86 149.967 57.924 146.872 59.561L146.87 59.557ZM137.191 57.323V60.301C137.191 68.491 145.38 76.679 153.57 76.679H155.804C162.997 76.679 172.183 69.028 172.183 62.534V55.834C172.183 48.515 163.042 40.944 155.06 40.944C146.333 40.944 137.191 48.682 137.191 57.324V57.323Z" fill="#F9DC5C"/>
<path id="Path 4" fill-rule="evenodd" clip-rule="evenodd" d="M115.602 39.456C125.512 38.632 139.425 30.27 139.425 19.356V17.123C139.425 9.43399 134.669 2.9641e-08 127.513 2.9641e-08C112.493 -0.00099997 115.602 25.301 115.602 39.456Z" fill="#011936"/>
<path id="Path 5" fill-rule="evenodd" clip-rule="evenodd" d="M56.788 136.979C68.219 136.979 103.663 138.542 109.646 134.746C106.081 133.307 106.253 119.856 93.268 119.856H88.056C84.429 119.856 78.413 123.638 77.633 126.556C74.497 126.295 73.685 125.067 70.933 125.067C60.726 125.071 59.826 130.643 56.788 136.979Z" fill="#F9DC5C"/>
<path id="Path 6" fill-rule="evenodd" clip-rule="evenodd" d="M6.908 131.027V133.261C6.908 135.549 9.089 136.239 11.375 136.239H13.608C16.733 136.239 22.542 134.822 22.542 131.772C22.5584 131.376 22.4925 130.982 22.3486 130.613C22.2047 130.244 21.9858 129.909 21.7059 129.629C21.4259 129.35 21.0909 129.131 20.722 128.987C20.3532 128.843 19.9585 128.777 19.563 128.794C16.335 128.794 17.263 129.979 13.607 130.283C16.507 125.949 34.452 108.056 34.452 103.483V102.738C34.4685 102.342 34.4028 101.948 34.259 101.579C34.1152 101.21 33.8964 100.875 33.6165 100.595C33.3366 100.316 33.0017 100.097 32.6329 99.953C32.2641 99.8092 31.8695 99.7434 31.474 99.76C29.464 99.76 20.89 112.56 19.127 114.96C16.124 119.052 6.908 126.697 6.908 131.027Z" fill="#011936"/>
<path id="Path 7" fill-rule="evenodd" clip-rule="evenodd" d="M151.336 116.882V117.627C151.336 119.927 165.563 133.178 166.97 139.217C164.888 138.117 159.079 134.75 156.547 134.75C154.831 134.75 154.313 135.268 154.313 136.983V137.728C154.313 140.743 163.876 145.173 166.969 145.173H170.692C172.626 145.173 174.415 142.515 174.415 141.451C174.415 136.101 157.737 114.651 155.058 114.651H153.569C151.854 114.648 151.336 115.166 151.336 116.882Z" fill="#011936"/>
<path id="Path 8" fill-rule="evenodd" clip-rule="evenodd" d="M12.12 58.068C12.12 58.974 13.66 60.302 15.098 60.302C17.736 60.302 20.133 53.729 21.782 51.352C24.014 48.134 29.987 45.638 29.987 43.179V42.434C29.987 40.719 29.469 40.201 27.753 40.201C21.993 40.201 12.12 51.755 12.12 58.068Z" fill="#011936"/>
<path id="Path 9" fill-rule="evenodd" clip-rule="evenodd" d="M146.869 59.557C149.969 57.919 154.169 55.857 158.781 58.068C158.535 56.8487 157.888 55.7467 156.944 54.9372C156 54.1278 154.812 53.6574 153.569 53.601C149.564 53.606 147.636 56.267 146.869 59.557Z" fill="#011936"/>
</g>
</g>
</svg>
