<svg xmlns="http://www.w3.org/2000/svg" width="215.366" height="168.039" viewBox="0 0 215.366 168.039">
  <g id="dogRunning" transform="translate(-194.886 -249.233)">
    <path id="Path_6467" data-name="Path 6467" d="M195.634,412.562s14.994-4.7,44.673-6.271,31.374-2.773,74.045,0,79.963,8.51,79.963,8.51" fill="none" stroke="#011936" stroke-linecap="round" stroke-width="5"/>
    <g id="Group_314" data-name="Group 314">
      <path id="Path_1" data-name="Path 1" d="M318.161,302.484c-5.41-3.963-7.706-15.634-20.846-15.634-8.12,0-19.356,5.852-19.356,13.4v2.234c0,4.472,4.462,8.934,8.934,8.934h3.722c6.184,0,17.04-5.011,26.057-5.212-.988,2.059-2.1,9.412-3.083,12.551-1.867,5.966-2.418,6.047-4.746,10.889-3.283,6.833-7.974,13.784-17.484,13.784-14.161,0-23.9-7.7-30.731-15.426-3.566-4.032-7.271-8.207-9.715-13.363-2.751-5.806-2.046-15.134-8.689-15.134H239.99c-5.232,0-12.656,14.377-12.656,21.59v5.212c0,10.618,11.817,23.078,20.845,23.078a2.861,2.861,0,0,0,2.978-2.978c0-4.251-17.868-5.637-17.868-20.1V321.1c0-5.211,4.939-14.568,8.934-15.634,0,17.943,26.946,43.923,45.414,43.923h3.722c10.18,0,16.739-6.522,20.845-12.656,8.383,5.613,19.452,19.356,34.246,19.356h8.19c2.328,0,2.109-1.336,3.018-3l-1.53-2.957c-12.751,0-15.982-.437-24.276-5.5-2.708-1.654-15.926-11.6-15.926-13.853,0-.472,3.393-9.267,3.957-10.933,1.458-4.3,1.111-8.746,2.726-12.909,3.616-9.324,9.209-9.264,18.333-12.935,6.318-2.542,35.563-19.138,39.755-22.781,7.517,5.033,20.069,12.956,30.523,5.956a44.445,44.445,0,0,1,5.212,20.845v8.934c0,11.338-9.607,23.2-17.132,27.536-11.793,6.788-20.793,5.966-38.7,5.966-.9,1.344-1.489,1.309-1.489,2.978a2.861,2.861,0,0,0,2.978,2.978h14.89c25.139,0,45.413-17.218,45.413-42.435v-7.445c0-14.909-11.343-40.2-25.312-40.2h-1.488c-2.948,0-34.6,19.521-39.307,22.485-6.228,3.917-13.134,7.132-19.989,10.534C328.586,293.169,320.612,293.306,318.161,302.484Z" transform="translate(-12.14 -3.372)" fill="#011936" fill-rule="evenodd"/>
      <path id="Path_2" data-name="Path 2" d="M309.253,473.011c-5.983,3.8-41.427,2.233-52.858,2.233-14.361,0-21.229,11.167-32.757,11.167-1.715,0-2.233-.518-2.233-2.233,0-2.874,5.612-6.679,7.642-8.736a40.95,40.95,0,0,0,6.765-10.358c2.8-5.716,7.183-18.348,7.183-26.319,0-1.715-.518-2.234-2.234-2.234h-.745c-1.669,0-1.634.589-2.978,1.489,0,7.34-4.74,21.413-7.451,26.051-2.487,4.256-3.369,5.911-7.242,9.137-2.511,2.092-6.9,6.13-6.9,10.226v2.233c0,4.015,3.682,6.7,7.445,6.7h2.978c10.485,0,18.093-11.167,32.012-11.167h2.978c24.47,0,45.185,2.481,62.362-6.527,0,0,13.98,16.879,21.842,20.372s8.813,3.389,9.539-5.656-6.635-20.076-6.635-30.523c0-4.938,2.977-7.319,2.977-9.679,0-.906-1.54-2.233-2.977-2.233h-.745c-11.9,0,1.139,38.229,1.488,42.435-7.061-1.645-21.267-20.845-24.568-20.845h-.74C319.538,468.544,315.1,472.88,309.253,473.011Z" transform="translate(-4.721 -89.028)" fill="#011936" fill-rule="evenodd"/>
      <path id="Path_3" data-name="Path 3" d="M459.786,345.885c.767-3.29,2.7-5.956,6.7-5.956A5.575,5.575,0,0,1,471.7,344.4c-4.61-2.212-8.817-.148-11.912,1.489Zm-9.679-2.234v2.978c0,8.19,8.189,16.378,16.379,16.378h2.234c7.193,0,16.379-7.651,16.379-14.145v-6.7c0-7.319-9.141-14.89-17.123-14.89-8.727,0-17.869,7.738-17.869,16.38Z" transform="translate(-118.03 -37.095)" fill="#f9dc5c" fill-rule="evenodd"/>
      <path id="Path_4" data-name="Path 4" d="M408.718,288.689c9.91-.824,23.823-9.186,23.823-20.1v-2.233c0-7.689-4.756-17.123-11.912-17.123C405.609,249.232,408.718,274.534,408.718,288.689Z" transform="translate(-98.23)" fill="#011936" fill-rule="evenodd"/>
      <path id="Path_5" data-name="Path 5" d="M296.862,494.8c11.431,0,46.875,1.563,52.858-2.233-3.565-1.439-3.393-14.89-16.378-14.89H328.13c-3.627,0-9.643,3.782-10.423,6.7-3.136-.261-3.948-1.489-6.7-1.489C300.8,482.892,299.9,488.464,296.862,494.8Z" transform="translate(-45.188 -108.588)" fill="#f9dc5c" fill-rule="evenodd"/>
      <path id="Path_6" data-name="Path 6" d="M201.794,470.637v2.234c0,2.288,2.181,2.978,4.467,2.978h2.233c3.125,0,8.934-1.417,8.934-4.467a2.862,2.862,0,0,0-2.979-2.978c-3.228,0-2.3,1.185-5.956,1.489,2.9-4.334,20.845-22.227,20.845-26.8v-.745a2.861,2.861,0,0,0-2.978-2.978c-2.01,0-10.584,12.8-12.347,15.2C211.01,458.662,201.794,466.307,201.794,470.637Z" transform="translate(0 -90.377)" fill="#011936" fill-rule="evenodd"/>
      <path id="Path_7" data-name="Path 7" d="M477.067,469.982v.745c0,2.3,14.227,15.551,15.634,21.59-2.082-1.1-7.891-4.467-10.423-4.467-1.716,0-2.234.518-2.234,2.233v.745c0,3.015,9.563,7.445,12.656,7.445h3.723c1.934,0,3.723-2.658,3.723-3.722,0-5.35-16.678-26.8-19.357-26.8H479.3C477.585,467.748,477.067,468.266,477.067,469.982Z" transform="translate(-130.845 -103.867)" fill="#011936" fill-rule="evenodd"/>
      <path id="Path_8" data-name="Path 8" d="M211.727,343.722c0,.906,1.54,2.234,2.978,2.234,2.638,0,5.035-6.573,6.684-8.95,2.232-3.218,8.205-5.714,8.205-8.173v-.745c0-1.715-.518-2.233-2.234-2.233C221.6,325.855,211.727,337.409,211.727,343.722Z" transform="translate(-4.721 -36.421)" fill="#011936" fill-rule="evenodd"/>
      <path id="Path_9" data-name="Path 9" d="M468.554,357.351c3.1-1.638,7.3-3.7,11.912-1.489a5.575,5.575,0,0,0-5.212-4.467C471.249,351.4,469.321,354.061,468.554,357.351Z" transform="translate(-126.799 -48.561)" fill="#011936" fill-rule="evenodd"/>
    </g>
  </g>
</svg>
