<svg xmlns="http://www.w3.org/2000/svg" width="180" height="108" viewBox="0 0 180 108">
  <g id="logo" transform="translate(-125 -289.275)">
    <rect id="Rectangle_29" data-name="Rectangle 29" width="180" height="108" rx="50" transform="translate(125 289.275)" fill="#fff"/>
    <text id="DOGGIE" transform="translate(213 340.275)" fill="#011936" font-size="34" font-family="FredokaOne-Regular, Fredoka One"><tspan x="-64.634" y="0">DOGGIE</tspan></text>
    <text id="Care" transform="translate(244 369.275)" fill="#011936" font-size="35" font-family="Handlee-Regular, Handlee"><tspan x="-35.717" y="0">Care</tspan></text>
    <g id="Group_193" data-name="Group 193" transform="matrix(-0.978, -0.208, 0.208, -0.978, 197.818, 384.347)">
      <ellipse id="Ellipse_29" data-name="Ellipse 29" cx="5.674" cy="4.013" rx="5.674" ry="4.013" transform="matrix(0.575, 0.818, -0.818, 0.575, 11.398, 20.371)" fill="#ed254e"/>
      <ellipse id="Ellipse_30" data-name="Ellipse 30" cx="6.112" cy="4.067" rx="6.112" ry="4.067" transform="translate(21.404 20.058) rotate(46.279)" fill="#ed254e"/>
      <ellipse id="Ellipse_31" data-name="Ellipse 31" cx="5.674" cy="4.013" rx="5.674" ry="4.013" transform="matrix(0.941, 0.339, -0.339, 0.941, 22.167, 2.27)" fill="#ed254e"/>
      <ellipse id="Ellipse_32" data-name="Ellipse 32" cx="6.112" cy="4.067" rx="6.112" ry="4.067" transform="translate(25.658 12.399) rotate(28.401)" fill="#ed254e"/>
      <path id="Path_8" data-name="Path 8" d="M18.748,9.244c.553,2.425,3.521,3.749,2.288,7.4A6.8,6.8,0,0,1,18.4,20.1c-3.194,2.154-5.256-.359-7.74-.252-2.891.124-6.327,1.557-9.194-1.282A4.474,4.474,0,0,1,0,15.33,5.5,5.5,0,0,1,2.6,10.962,14.721,14.721,0,0,0,6.1,7.984,14.729,14.729,0,0,0,8.046,3.816,5.5,5.5,0,0,1,11.575.161a4.472,4.472,0,0,1,3.508.555C18.579,2.73,18.1,6.423,18.748,9.244Z" fill="#ed254e"/>
    </g>
  </g>
</svg>
