<svg xmlns="http://www.w3.org/2000/svg" xmlns:xlink="http://www.w3.org/1999/xlink" width="401.774" height="464.047" viewBox="0 0 401.774 464.047">
  <defs>
    <linearGradient id="linear-gradient" x1="0.5" x2="0.5" y2="1" gradientUnits="objectBoundingBox">
      <stop offset="0" stop-color="#f9dc5c"/>
      <stop offset="1" stop-color="#c2eabd"/>
    </linearGradient>
  </defs>
  <g id="introductionSvg" transform="translate(0 -1079.532)">
    <path id="Path_3168" data-name="Path 3168" d="M-881,4890.531s219.7,29.846,268.714,99.81-91.62,99.285-72.656,180.043,197.528,96.982,148.513,142.993S-881,5354.422-881,5354.422Z" transform="translate(881 -3811)" fill="url(#linear-gradient)"/>
    <g id="Group_220" data-name="Group 220" transform="translate(34.438 1100.578)">
      <path id="Path_66" data-name="Path 66" d="M364.035,538.129l80.545,51.078,3.5-8.421L383.923,512.5Z" transform="translate(-227.408 -432.987)" fill="#f7bfa3"/>
      <path id="Path_67" data-name="Path 67" d="M249.347,539.373l-8.786,94.97,9.089-.724,31.572-88.214Z" transform="translate(-173.642 -444.688)" fill="#f7bfa3"/>
      <path id="Path_68" data-name="Path 68" d="M279.441,383.772c-.754,1.9-.619,4.038-1,6.046a23.5,23.5,0,0,1-7.384,13.066c-5.232,4.668-13.733,10.042-18.581,15.109-6.259,6.543-9.519,22.805-9.381,27.275,11.69,2.715,23.875,1.446,35.87,1.081,9.4-.286,18.8-.007,28.2.273-1.553-9.383-.309-19.006-1.126-28.481-.973-11.28-4.835-22.083-8.664-32.738-1.392-3.873-3.206-11.832-8.7-12.232C288.669,373.171,282.96,374.914,279.441,383.772Z" transform="translate(-174.744 -372.317)" fill="#252f3f"/>
      <g id="Group_43" data-name="Group 43" transform="translate(80.626 32.036)">
        <path id="Path_69" data-name="Path 69" d="M265.427,461.145a.564.564,0,0,1-.563-.528c-.292-4.5,2.1-9.267,6.575-13.088a56.72,56.72,0,0,1,7.911-5.35c1.459-.872,2.969-1.773,4.4-2.727,4.958-3.31,7.928-6.792,9.08-10.645a.565.565,0,1,1,1.082.323c-1.23,4.116-4.349,7.8-9.534,11.261-1.452.969-2.973,1.878-4.445,2.757a55.883,55.883,0,0,0-7.756,5.239c-4.2,3.587-6.451,8.018-6.182,12.157a.565.565,0,0,1-.527.6Z" transform="translate(-264.841 -428.403)" fill="#3d4f6b"/>
      </g>
      <g id="Group_44" data-name="Group 44" transform="translate(74.54 18.956)">
        <path id="Path_70" data-name="Path 70" d="M254.624,449.259H254.6a.565.565,0,0,1-.544-.584c.222-6.136,1.62-10.7,4.275-13.941,2.337-2.855,5.614-4.657,8.783-6.4.942-.518,1.916-1.053,2.843-1.605a32.876,32.876,0,0,0,9.912-8.714,21.544,21.544,0,0,0,4.309-12.222.576.576,0,0,1,.571-.558.564.564,0,0,1,.558.571,22.683,22.683,0,0,1-4.525,12.874,33.995,33.995,0,0,1-10.247,9.019c-.943.562-1.926,1.1-2.877,1.624-3.075,1.691-6.254,3.438-8.453,6.125-2.493,3.046-3.808,7.385-4.02,13.265A.565.565,0,0,1,254.624,449.259Z" transform="translate(-254.059 -405.235)" fill="#3d4f6b"/>
      </g>
      <path id="Path_71" data-name="Path 71" d="M170.786,905.209l-22.923,5.923,3.985,23-12.336-29.246L165.661,888.4Z" transform="translate(-129.641 -596.67)" fill="#f7bfa3"/>
      <path id="Path_72" data-name="Path 72" d="M190.955,835.574l106.381-27.489,3.469-79.6-33.826,39.133L185.83,818.766Z" transform="translate(-149.81 -527.036)" fill="#465362"/>
      <path id="Path_73" data-name="Path 73" d="M144.178,922.459s3.378,17.251,3.615,22.443c.262,5.752-1.451,14.9-1.451,14.9l-18.356-40.647,8.232-3.718Z" transform="translate(-124.621 -608.445)" fill="#ed254e"/>
      <rect id="Rectangle_7" data-name="Rectangle 7" width="3.691" height="44.6" transform="matrix(0.911, -0.412, 0.412, 0.911, 0, 312.232)" fill="#011936"/>
      <g id="Group_45" data-name="Group 45" transform="translate(16.67 323.667)">
        <path id="Path_74" data-name="Path 74" d="M156.766,948.687a.564.564,0,0,1-.479-.265c-.031-.049-1.617-2.482-4.127-2.311a.555.555,0,0,1-.6-.522.564.564,0,0,1,.522-.6c3.213-.244,5.087,2.713,5.166,2.839a.565.565,0,0,1-.479.864Z" transform="translate(-151.554 -944.971)" fill="#fff"/>
      </g>
      <g id="Group_46" data-name="Group 46" transform="translate(17.334 329.705)">
        <path id="Path_75" data-name="Path 75" d="M158.335,960.442a.567.567,0,0,1-.511-.322c-.015-.033-1.586-3.265-4.54-3.325a.565.565,0,1,1,.023-1.129c3.659.074,5.463,3.812,5.537,3.972a.564.564,0,0,1-.51.8Z" transform="translate(-152.731 -955.666)" fill="#fff"/>
      </g>
      <path id="Path_76" data-name="Path 76" d="M318.795,836.311l-2.782-109.378s-26.339-54.948-26.339-73.656c0-26.675,25.016-45.378,25.8-45.96l.017-.011h33.873l14.754,118.013-29.05,112.334Z" transform="translate(-195.028 -474.269)" fill="#465362"/>
      <path id="Path_77" data-name="Path 77" d="M357.529,1014.285l-5.877,22.726,21.942,7.189-31.615-2.823-.723-28.434Z" transform="translate(-217.489 -650.902)" fill="#f7bfa3"/>
      <path id="Path_78" data-name="Path 78" d="M350.42,492.636c-.6-2.5-13.232-18.557-19.4-26.3a8.379,8.379,0,0,0-8.5-2.924l-35.371,8.443a13.763,13.763,0,0,0-8.6,20.485L309.786,544.5l33.873,0,.2-39.877A10.2,10.2,0,0,0,350.42,492.636Z" transform="translate(-189.323 -411.514)" fill="#ed254e"/>
      <path id="Path_79" data-name="Path 79" d="M371.106,536.035s-9.17-1.921-15.359.087-6.456,7.427-16.614,7.545c0,0,5.515,4.138,17.622-2.7,3.512-1.983,10.962-.676,14.168,1.906Z" transform="translate(-216.564 -442.874)" fill="#ce2043"/>
      <path id="Path_80" data-name="Path 80" d="M352.21,1055.575s17.112,4.021,21.942,5.943c5.35,2.128,12.985,7.456,12.985,7.456h-44.6v-9.033Z" transform="translate(-218.047 -669.465)" fill="#ed254e"/>
      <rect id="Rectangle_8" data-name="Rectangle 8" width="44.6" height="3.691" transform="translate(124.49 399.509)" fill="#011936"/>
      <g id="Group_47" data-name="Group 47" transform="translate(141.966 388.697)">
        <path id="Path_81" data-name="Path 81" d="M374.057,1064.462a.563.563,0,0,1-.53-.76c1.114-3.023,4.568-3.519,4.714-3.539a.565.565,0,0,1,.151,1.119c-.052.007-2.933.443-3.806,2.811A.566.566,0,0,1,374.057,1064.462Z" transform="translate(-373.492 -1060.158)" fill="#fff"/>
      </g>
      <g id="Group_48" data-name="Group 48" transform="translate(147.732 390.655)">
        <path id="Path_82" data-name="Path 82" d="M384.269,1067.847a.565.565,0,0,1-.509-.807c1.574-3.306,5.723-3.41,5.9-3.413a.549.549,0,0,1,.574.554.566.566,0,0,1-.554.575c-.036,0-3.628.1-4.9,2.769A.563.563,0,0,1,384.269,1067.847Z" transform="translate(-383.705 -1063.627)" fill="#fff"/>
      </g>
      <path id="Path_83" data-name="Path 83" d="M318.133,799.318l5.175,11.226.891,35.014-17.771,4.592,14.824-37.277Z" transform="translate(-202.323 -557.88)" fill="#011936"/>
      <g id="Group_49" data-name="Group 49" transform="translate(133.451 134.046)">
        <path id="Path_84" data-name="Path 84" d="M358.974,835.632a.639.639,0,0,1-.086-.006.565.565,0,0,1-.472-.644L375.384,725c-5.415-49.3-8.867-114.659-8.9-115.313a.565.565,0,0,1,1.128-.059c.034.654,3.488,66.05,8.9,115.323a.564.564,0,0,1,0,.148l-16.98,110.053A.565.565,0,0,1,358.974,835.632Z" transform="translate(-358.409 -609.094)" fill="#011936"/>
      </g>
      <g id="Group_50" data-name="Group 50" transform="translate(143.005 145.116)">
        <path id="Path_85" data-name="Path 85" d="M375.9,643.225a.565.565,0,0,1-.028-1.129,10.762,10.762,0,0,0,7.93-3.419c3.269-3.739,2.839-9.307,2.835-9.363a.564.564,0,0,1,1.125-.1c.021.247.481,6.089-3.1,10.2a11.841,11.841,0,0,1-8.73,3.81Z" transform="translate(-375.332 -628.702)" fill="#011936"/>
      </g>
      <g id="Group_51" data-name="Group 51" transform="translate(102.605 139.047)">
        <path id="Path_86" data-name="Path 86" d="M309.869,634.993a15.643,15.643,0,0,1-5.741-1.185.564.564,0,0,1,.415-1.05c3.745,1.477,7.148,1.47,10.113-.022,5.286-2.662,7.765-9.3,8.378-11.2l-7.577-2.485a.564.564,0,1,1,.352-1.073l8.1,2.657a.565.565,0,0,1,.37.683c-.1.37-2.5,9.093-9.117,12.423A11.626,11.626,0,0,1,309.869,634.993Z" transform="translate(-303.771 -617.952)" fill="#011936"/>
      </g>
      <path id="Path_87" data-name="Path 87" d="M319.311,390.232v11.085c-1.717-.134-5.576-.076-6,3.093-.494,3.706,1.81,7.925,9.017,7.242l-5.935,24.98s4.038,8.231,20.471,9.923l-5.09-24.5a11.667,11.667,0,0,0,3.437.623,8.606,8.606,0,0,0,8.635-8.634v-23.81Z" transform="translate(-205.293 -379.746)" fill="#f7bfa3"/>
      <path id="Path_88" data-name="Path 88" d="M322.462,371.658a11.97,11.97,0,0,0-11.97,11.97v12.693h1.62c.756-3.66,6-3.093,6-3.093,7.474-5.024,9.246-11.084,9.246-11.084,7.64,10.631,15.291,8.667,15.291,8.667v-7.183a11.97,11.97,0,0,0-11.97-11.97Z" transform="translate(-204.093 -371.658)" fill="#252f3f"/>
      <g id="Group_52" data-name="Group 52" transform="translate(109.238 22.93)">
        <path id="Path_89" data-name="Path 89" d="M316.087,416.467h-.039a.565.565,0,0,1-.526-.6,3.7,3.7,0,0,1,3.611-3.589.572.572,0,0,1,.58.549.564.564,0,0,1-.546.58h0a2.578,2.578,0,0,0-2.518,2.537A.565.565,0,0,1,316.087,416.467Z" transform="translate(-315.521 -412.275)" fill="#ed9d8d"/>
      </g>
      <g id="Group_53" data-name="Group 53" transform="translate(110.273 23.736)">
        <path id="Path_90" data-name="Path 90" d="M320.92,418.422a.565.565,0,0,1-.552-.449,5.23,5.23,0,0,0-2.689-3.2.564.564,0,1,1,.48-1.021,6.318,6.318,0,0,1,3.314,3.986.563.563,0,0,1-.437.668A.541.541,0,0,1,320.92,418.422Z" transform="translate(-317.354 -413.701)" fill="#ed9d8d"/>
      </g>
      <g id="Group_54" data-name="Group 54" transform="translate(125.26 6.497)">
        <path id="Path_91" data-name="Path 91" d="M356.682,392.959h-.025a13.782,13.782,0,0,1-10.19-4.683,12.922,12.922,0,0,1-2.545-4.387.564.564,0,0,1,1.083-.317c.1.321,2.431,7.865,11.7,8.259a.565.565,0,0,1-.024,1.129Z" transform="translate(-343.9 -383.166)" fill="#3d4f6b"/>
      </g>
      <path id="Path_92" data-name="Path 92" d="M340.8,442.695s-3.228-.937-6.831-5.058l8.786,14.471Z" transform="translate(-214.315 -400.388)" fill="#ed9d8d"/>
      <g id="Group_55" data-name="Group 55" transform="translate(113.72 8.512)">
        <path id="Path_93" data-name="Path 93" d="M324.024,395.55a.565.565,0,0,1-.419-.942,62.047,62.047,0,0,0,4.311-5.357,6.879,6.879,0,0,0,1.152-2.1.565.565,0,0,1,1.089.3,7.8,7.8,0,0,1-1.323,2.46,63.232,63.232,0,0,1-4.389,5.454A.563.563,0,0,1,324.024,395.55Z" transform="translate(-323.459 -386.735)" fill="#3d4f6b"/>
      </g>
      <g id="Group_62" data-name="Group 62" transform="translate(269.253 336.779)">
        <path id="Path_101" data-name="Path 101" d="M639.879,1060.219c.065.066,4.351,5.107,7.088,8.327a3.166,3.166,0,0,1-.578,4.63l-.958.683a4.466,4.466,0,0,1-5.911-.651l-8.482-9.433Z" transform="translate(-612.926 -1008.267)"/>
        <path id="Path_102" data-name="Path 102" d="M719,1063.39s-3.075,10.824-7.4,10.824,0-14,0-14Z" transform="translate(-647.168 -1008.267)"/>
        <path id="Path_103" data-name="Path 103" d="M725.854,977.865l.124-6.919a2.117,2.117,0,0,0-3.885-1.2l-3.456,5.24Z" transform="translate(-651.07 -968.453)"/>
        <path id="Path_104" data-name="Path 104" d="M599.93,1031.178l2.812,2.343a2.67,2.67,0,0,0,3.1.232l18.258-11.116s25.71,7.571,40.84-.463c0,0,5.036,7.238,12.065,11.088a3.934,3.934,0,0,0,4.759-.773,3.814,3.814,0,0,0-.028-5.25l-6.425-6.7-1.446-1.507s8.757-6.775,9.045-23.491l.085-.006a36.7,36.7,0,0,0,8.525-2.924,8.883,8.883,0,0,0,4.742-5.871c.044-.164.079-.339.113-.508l.666-3.534H684.382a1.956,1.956,0,0,1-1.7-1.01,12.257,12.257,0,0,0-10.755-6.368h-1.542l-3.347-6a2.185,2.185,0,0,0-4.093,1c-.282,9.389-.965,24-2.557,26.7-12.025,2.061-34.98,5.036-47.592.446a19.373,19.373,0,0,1-3.969-1.936,19.593,19.593,0,0,0,.526,5.5c.644,2.591,2.027,5.375,4.951,6.605,0,0-5.086,11.867-14.374,19.4A2.683,2.683,0,0,0,599.93,1031.178Z" transform="translate(-598.955 -968.196)" fill="#011936"/>
        <path id="Path_105" data-name="Path 105" d="M728.246,1000.974a19.409,19.409,0,0,1,2.9,11.686,58.918,58.918,0,0,1-2.168,12.031,2.665,2.665,0,0,0,.1,1.485s8.757-6.775,9.045-23.491l.085-.006a36.694,36.694,0,0,0,8.525-2.924,8.883,8.883,0,0,0,4.742-5.871c.044-.164.079-.339.113-.508l.666-3.534H739.6a1.956,1.956,0,0,1-1.7-1.011,12.328,12.328,0,0,0-3.839-4.234c-2.772,2.3-4.742,5.646-6.938,8.457a6.016,6.016,0,0,0-1.259,2.179C725.338,997.315,727.037,999.2,728.246,1000.974Z" transform="translate(-654.172 -975.337)" fill="#ffebd9"/>
        <path id="Path_106" data-name="Path 106" d="M766.9,993.89s.373,3.692,2.49,4.042c.045-.164.079-.339.113-.508l.666-3.534Z" transform="translate(-672.086 -979.384)" fill="#252f3f"/>
        <g id="Group_59" data-name="Group 59" transform="translate(61.295 23.919)">
          <path id="Path_108" data-name="Path 108" d="M724.031,1019.647a20.419,20.419,0,0,1-16.246-7.235,1.129,1.129,0,0,1,1.741-1.438c7.665,9.28,19.609,5.9,20.115,5.752a1.129,1.129,0,0,1,.641,2.166A24.686,24.686,0,0,1,724.031,1019.647Z" transform="translate(-707.527 -1010.564)" fill="#c2eabd"/>
        </g>
        <path id="Path_109" data-name="Path 109" d="M616.939,1022.13a9.14,9.14,0,0,0,3.444-3.568,19.372,19.372,0,0,1-3.969-1.936A19.593,19.593,0,0,0,616.939,1022.13Z" transform="translate(-606.547 -989.285)" fill="#ffebd9"/>
        <g id="Group_60" data-name="Group 60" transform="translate(25.013 48.188)">
          <path id="Path_110" data-name="Path 110" d="M643.826,1059.727a.564.564,0,0,1-.328-1.024l7.063-5.045a.564.564,0,0,1,.656.918l-7.063,5.046A.561.561,0,0,1,643.826,1059.727Z" transform="translate(-643.261 -1053.552)"/>
        </g>
        <g id="Group_61" data-name="Group 61" transform="translate(61.481 48.189)">
          <path id="Path_111" data-name="Path 111" d="M712.1,1059.079a.565.565,0,0,1-.416-.183,47.025,47.025,0,0,1-3.756-4.511.564.564,0,0,1,.994-.535,44.516,44.516,0,0,0,3.595,4.283.565.565,0,0,1-.417.946Z" transform="translate(-707.856 -1053.553)"/>
        </g>
      </g>
      <path id="Path_112" data-name="Path 112" d="M272.1,480.274s-29.071,3.016-23.21,46.932l34.437,5.766,5.939-24.984Z" transform="translate(-176.93 -418.954)" fill="#ed254e"/>
      <path id="Path_113" data-name="Path 113" d="M240.173,692.3a7.75,7.75,0,0,0-5.452,5.079l-2.412.4a2.29,2.29,0,0,0-1.764,3.08l.318.827,5.165-1.354-4.359,2.213a2.215,2.215,0,0,0-.864,3.167l.95,1.488,5.539-3.746-2.885,3.086a2.805,2.805,0,0,0,.283,4.095l.763.618,9.779-11.044Z" transform="translate(-169.214 -511.281)" fill="#f7bfa3"/>
      <g id="Group_63" data-name="Group 63" transform="translate(107.016 83.136)">
        <path id="Path_114" data-name="Path 114" d="M312.149,545.394a.6.6,0,0,1-.105-.01.563.563,0,0,1-.45-.659l4.758-25.35a.564.564,0,0,1,1.109.209L312.7,544.934A.564.564,0,0,1,312.149,545.394Z" transform="translate(-311.584 -518.916)" fill="#ce2043"/>
      </g>
      <path id="Path_115" data-name="Path 115" d="M516.047,647.218a5.039,5.039,0,0,1,3.325-5.155h0a1.952,1.952,0,0,1,.889-3.8h0a1.958,1.958,0,0,0-1.407-2.385l-1.983-.512a1.95,1.95,0,0,0-.252-.038l.219-1.018a1.318,1.318,0,0,0-1.41-1.59l-5.258.485-3.464,8.349Zm-.181-8.069c-.022,0-.044-.007-.067-.01l0-.013C515.824,639.132,515.844,639.143,515.865,639.149Z" transform="translate(-289.533 -485.333)" fill="#f7bfa3"/>
      <g id="Group_64" data-name="Group 64" transform="translate(219.469 150.105)">
        <path id="Path_116" data-name="Path 116" d="M517.013,643.612a.581.581,0,0,1-.138-.017,2.827,2.827,0,0,1-2.275-2.977c.017-.138.033-.269.049-.393a4.385,4.385,0,0,1-3.369,1.424.564.564,0,0,1-.5-.62.555.555,0,0,1,.62-.5c1.915.2,3.59-2.461,3.606-2.487a.565.565,0,0,1,1.034.4s-.1.532-.317,2.31a1.5,1.5,0,0,0,.9,1.535l1.094-4.324a.565.565,0,1,1,1.1.277l-1.252,4.944A.566.566,0,0,1,517.013,643.612Z" transform="translate(-510.774 -637.539)" fill="#ed9d8d"/>
      </g>
      <g id="Group_65" data-name="Group 65" transform="translate(223.581 154.3)">
        <path id="Path_117" data-name="Path 117" d="M521.948,649.365a.571.571,0,0,1-.163-.024l-2.441-.738a1.8,1.8,0,0,1-1.247-2.1l.226-1.079a.564.564,0,1,1,1.1.231l-.226,1.08a.675.675,0,0,0,.469.79l2.441.738a.564.564,0,0,1-.163,1.1Z" transform="translate(-518.056 -644.971)" fill="#ed9d8d"/>
      </g>
      <g id="Group_66" data-name="Group 66" transform="translate(225.768 153.251)">
        <path id="Path_118" data-name="Path 118" d="M524.621,644.78a.568.568,0,0,1-.139-.017l-2.126-.539a.565.565,0,1,1,.278-1.095l2.126.539a.564.564,0,0,1-.138,1.112Z" transform="translate(-521.93 -643.112)" fill="#ed9d8d"/>
      </g>
      <g id="Group_67" data-name="Group 67" transform="translate(222.799 156.582)">
        <path id="Path_119" data-name="Path 119" d="M517.417,652.222a.565.565,0,0,1-.513-.328,2.061,2.061,0,0,1,.981-2.828.565.565,0,0,1,.483,1.021.932.932,0,0,0-.438,1.334.564.564,0,0,1-.276.749A.558.558,0,0,1,517.417,652.222Z" transform="translate(-516.672 -649.013)" fill="#ed9d8d"/>
      </g>
      <g id="Group_68" data-name="Group 68" transform="translate(220.702 149.272)">
        <path id="Path_120" data-name="Path 120" d="M525.636,659.953a3.42,3.42,0,0,1-1.416-.307c-3.327-1.518-9.17-4.922-10.922-10.676a8.121,8.121,0,0,1,1.7-7.7.565.565,0,0,1,.835.761,7.063,7.063,0,0,0-1.452,6.614c1.622,5.329,7.156,8.539,10.31,9.977a2.319,2.319,0,0,0,3.262-1.938,38.659,38.659,0,0,0-1.008-12.581c-1.314-4.434-4.788-6.993-6.239-6.9a.564.564,0,1,1-.067-1.127c2.066-.142,5.94,2.822,7.389,7.709a39.845,39.845,0,0,1,1.051,12.986,3.453,3.453,0,0,1-3.44,3.189Z" transform="translate(-512.958 -636.064)" fill="#252f3f"/>
      </g>
      <g id="Group_69" data-name="Group 69" transform="translate(233.792 171.857)">
        <path id="Path_121" data-name="Path 121" d="M633,865.229a.56.56,0,0,1-.345-.118c-.191-.148-19.414-15.182-40.8-45.788a317.705,317.705,0,0,1-32.225-58.7,356.758,356.758,0,0,1-23.478-83.906.565.565,0,1,1,1.116-.172C547.524,743.018,573.1,790.5,592.749,818.633c21.293,30.483,40.406,45.437,40.6,45.584a.565.565,0,0,1-.346,1.011Z" transform="translate(-536.143 -676.069)" fill="#252f3f"/>
      </g>
      <path id="Path_122" data-name="Path 122" d="M253.833,564.131l28.61,4.79L278.4,580.232Z" transform="translate(-179.421 -455.469)" fill="#ed9d8d"/>
    </g>
  </g>
</svg>
